/* XPM */
static char *ad4c421e52f44ff7b8ec47024627367cYLiAwmEO1ZSCfAgX[] = {
/* columns rows colors chars-per-pixel */
"64 64 256 2 ",
"   c #150C04",
".  c #180C07",
"X  c #1B0E0A",
"o  c #141305",
"O  c #1A1304",
"+  c #1C1D05",
"@  c #10100A",
"#  c #14140B",
"$  c #1C140C",
"%  c #15190C",
"&  c #1B1B0C",
"*  c #1D1412",
"=  c #171814",
"-  c #1D1C12",
";  c #271705",
":  c #231C05",
">  c #22150D",
",  c #221B0C",
"<  c #2A1B0C",
"1  c #321D0A",
"2  c #221613",
"3  c #281614",
"4  c #231C13",
"5  c #2B1D13",
"6  c #251C19",
"7  c #291E1A",
"8  c #321E11",
"9  c #1B2309",
"0  c #0C2011",
"q  c #1D2213",
"w  c #1C2518",
"e  c #282705",
"r  c #24230C",
"t  c #2B230C",
"y  c #242A0C",
"u  c #2A2B0C",
"i  c #33240C",
"p  c #382708",
"a  c #3B250C",
"s  c #322C0D",
"d  c #2B340B",
"f  c #34330C",
"g  c #3C340B",
"h  c #242314",
"j  c #2B2414",
"k  c #252A14",
"l  c #2C2B14",
"z  c #24231A",
"x  c #2C241A",
"c  c #252B1B",
"v  c #2B2B1B",
"b  c #332414",
"n  c #3A2413",
"m  c #332C15",
"M  c #3A2B14",
"N  c #32251B",
"B  c #392619",
"V  c #332B1B",
"C  c #3B2C1B",
"Z  c #2D3315",
"A  c #293616",
"S  c #2D331A",
"D  c #343314",
"F  c #3B3314",
"G  c #353B15",
"H  c #3B3B14",
"J  c #33331B",
"K  c #3B341B",
"L  c #343B1B",
"P  c #3C3B1B",
"I  c #282420",
"U  c #2E2D21",
"Y  c #332C21",
"T  c #382A23",
"R  c #2C3421",
"E  c #343422",
"W  c #3B3423",
"Q  c #3A3A27",
"!  c #491D05",
"~  c #462A0B",
"^  c #46360C",
"/  c #55390C",
"(  c #442A16",
")  c #432C1C",
"_  c #502F17",
"`  c #453414",
"'  c #4A3413",
"]  c #423C15",
"[  c #4C3B14",
"{  c #43341B",
"}  c #4A351B",
"|  c #433B1C",
" . c #4C3B1A",
".. c #533C14",
"X. c #5A3D14",
"o. c #573818",
"O. c #523D1B",
"+. c #68310A",
"@. c #633E18",
"#. c #462D23",
"$. c #433421",
"%. c #493727",
"&. c #433C24",
"*. c #563B27",
"=. c #403531",
"-. c #39420C",
";. c #3C4113",
":. c #3A4519",
">. c #3C4524",
",. c #45470C",
"<. c #5A420E",
"1. c #43441C",
"2. c #434B1B",
"3. c #474818",
"4. c #544115",
"5. c #5B4314",
"6. c #584917",
"7. c #55421B",
"8. c #5B441B",
"9. c #5C4A1C",
"0. c #45531B",
"q. c #4A5619",
"w. c #4B541C",
"e. c #54591C",
"r. c #66480A",
"t. c #624514",
"y. c #624B16",
"u. c #67461B",
"i. c #634C1C",
"p. c #6A4D1C",
"a. c #73491C",
"s. c #67521C",
"d. c #78551A",
"f. c #52611E",
"g. c #434224",
"h. c #4A4627",
"j. c #434C24",
"k. c #574726",
"l. c #495725",
"z. c #535925",
"x. c #554E33",
"c. c #674923",
"v. c #754C2A",
"b. c #645322",
"n. c #6B5323",
"m. c #675929",
"M. c #6D5C2B",
"N. c #745A23",
"B. c #775628",
"V. c #735C2B",
"C. c #6A5836",
"Z. c #745D33",
"A. c #785B35",
"S. c #596427",
"D. c #54662E",
"F. c #66682B",
"G. c #77632B",
"H. c #796837",
"J. c #707238",
"K. c #655B47",
"L. c #786646",
"P. c #7C7547",
"I. c #726954",
"U. c #85551E",
"Y. c #896219",
"T. c #8A5D30",
"R. c #85662C",
"E. c #93702F",
"W. c #876939",
"Q. c #87723D",
"!. c #977538",
"~. c #AE7C3A",
"^. c #896A44",
"/. c #936C4B",
"(. c #857344",
"). c #897549",
"_. c #8B7A4D",
"`. c #977648",
"'. c #8A7954",
"]. c #937D53",
"[. c #9A7B56",
"{. c #A37A4C",
"}. c #AE6F50",
"|. c #A37855",
" X c #C87E5E",
".X c #C37E65",
"XX c #B68A3E",
"oX c #8C8359",
"OX c #938254",
"+X c #9C8B55",
"@X c #988559",
"#X c #9B895C",
"$X c #A78248",
"%X c #A38355",
"&X c #A8845A",
"*X c #A38A5C",
"=X c #AB8A5C",
"-X c #B58959",
";X c #AE9554",
":X c #B9935D",
">X c #8D8067",
",X c #958964",
"<X c #9B8C62",
"1X c #A38D63",
"2X c #AA8C65",
"3X c #A78969",
"4X c #B48C64",
"5X c #B88A68",
"6X c #A49265",
"7X c #AB9265",
"8X c #A89668",
"9X c #AC946A",
"0X c #AC9A6C",
"qX c #B49364",
"wX c #BB9566",
"eX c #B4946B",
"rX c #B39C6D",
"tX c #BC9C6C",
"yX c #AB8A74",
"uX c #AD9A72",
"iX c #B39C72",
"pX c #BB9C72",
"aX c #B79979",
"sX c #AEA16E",
"dX c #B7A16E",
"fX c #B5A273",
"gX c #BCA274",
"hX c #B7A778",
"jX c #BCA37B",
"kX c #BCAA7A",
"lX c #C39059",
"zX c #C79767",
"xX c #CE926C",
"cX c #C49B6C",
"vX c #C69B72",
"bX c #C6A16A",
"nX c #C2A26E",
"mX c #C3A373",
"MX c #CAA574",
"NX c #C5A57A",
"BX c #C7A978",
"VX c #C4AA7C",
"CX c #CCAB7C",
"ZX c #D7AA72",
"AX c #D2A979",
"SX c #CBB07D",
"DX c #E6A274",
"FX c #B8AA85",
"GX c #C4AD83",
"HX c #CAAC83",
"JX c #D4AF88",
"KX c #C9B386",
"LX c #D2B283",
"PX c #D8B786",
"IX c #E4B38A",
"UX c #DEC594",
/* pixels */
"> < > x x 4 3 o h $ 4 4 x h $ 4 < < i l & , q k k v % & 9 9 & + h 4 $ O l h l h u l r l J m J N V V , j N K D i b T 5 K 3 T B ) ",
"v W V N 4 c & w % % z h 4 q q - h o q q % # q A 9 w w A k e l l + r U l l t u 9 J k y S l q q j g.W l m m u K u C m x.v 4 ) %.( ",
"4 W 3 h - U % x , z 4 > * 0 % = 4 v c % q v c w = w 0 J r c r t Q , x + + y J r + A 9 9 l h & 4 z S r h l m t t Q M %.U 4 #.*.C ",
"- x T E z w j z h Q z V 6 0 q = % z # z 0 h w 0 0 @ R K D D M C i ` (.k...p : O & & w l J v - h h l h & 9 J W , j $.Y E 5 ) #.B ",
"z 5 Y , - z V v v U Q Q z = = = % o - - 0 = = % @ - x.~ 2XB.%Xn.A.+.( L.( ! o.M $ & O h >.l h z c l j & c v l Q x h T U 5 b $.b ",
"4 x N r & z S h x x - v I - w w % = q 0 w @ = = Q  .r.a.PXB.@./ ~ x.@.W.' x.1 n a M   o o z E Q E J & # Z &.l 3 x + &.Q M M $.8 ",
"j & W 4 z z l V b v + v z # @ = = z z = 6 = @ M 8.^.~ E.a.~ o.!.R._ ( a } M C ; i 1 0X= > z r m D Z , v r & + 5   l b E M M C 8 ",
"x x 7 4 x & J j x j E x V & I = = - E z - c B B.u.cXY.d.@./ !.-XE.G.( ( n.~ o.< r R 7 C.n 5 o V E h h & V L + x 3 J V j %.{ $.8 ",
"x 4 j h U 6 x 4 , Q V m i m h $ - # z # y x.t.o.-XXXlXR.Y.Y.XX~.E.r./ H.b.X./ _ ; < C n b > , r J u z r v P N x 4 V j x W n M B ",
"V j N 4 h &., t j j t n i M , @ c z % @ F R./ M.+X$XY.G.lXDXlXlX$X$X/ ..8.$XE.@.v.; M `   3 z & r h $ h Y D 3 $   j x h C C $.M ",
"; x T N : K O K j j 8 M O l h o R & w   C.p / ~ `.E.+.ZXIXZXZXzXlX;Xd.R.`.5.$XY.A.M p  .h.; * , E , , j W P r 7 * x V v %.B 8 { ",
"n $.b j + t m m m ; : l t r & z = 9 J %.P m.R.t.`.-XIXUXUXPXPXcX&X%X$Xd.) U.W.~ ( n C n 1 V 4 4 V , h &.K g.t v 5 l N x T N N $.",
"b n M T b l D u j M n M m l   v - c u ` 4.!.E.G.eXvXbXLXiXJXZXvXvX&X&X^.Z.o.t.<.A.{ i n n j j j P l u K &.&.K , , m h V C B T #.",
"B C { $ : t O m t M < < u v o S J A E e N.E.R.L.MXlXZXJXaXCXxX4X<X/.^.c.c.c.c...B m a 1 n b 4 S $.m &.J g.g.Q &.V , r m { T 8 $.",
"K M m 4 m N p s m ; m l + k k A 9 A 9 I.g ( ` ] uXA.o._ o.%XcX/.~ u.p.X.o.O._ / %.; ; ~ #.1 N   i e s H ] &.l g.K F j V h.C 3 %.",
"a { > t m i s G < 8 v r h u >.>.A >.w e [ 9.%.3.[.).`.T.o.^.vXA.@.*.`.^.#.%.C.c._ *.o.t x b b $ K {  .3.H >.l.& | K J C l.V b *.",
"7.M N m i i s ` t l $ c & H S Z d S 9 + g j ,.~ 7XV.+X[.c.^.HXU.@.} *.*.a c.N.p.o.' u.i.; i > & ; F H ] H f j.K D l v K z., j C.",
"^ W m K ; < ] e f u , r k D 9 & + A w c k.p / ^ tXZXNX).KXeXzXW.B.C.3XpX|.[.T.v.X.u.p.*.  ; , O m D H ] h.H 1.H f m v 2.,.W 5 } ",
"..J M M ; i H i F o & u 9 :.% k + :.9 j.g r.~ ; &XDXDXxXxX5X5X{.u.X.[.4X}.|.T.o.c.B.W.5.M i x h r 3.1.1.1.H :.-.:.G v k.3.m C ) ",
"` k h M b M ] u D D h l v y q l 9 A A G g <X<.~ |. XxXDXxX-XxX|.a.@.v././.W.B.a.u./ { $.K b & v D ;.2.H -.H j.2.:.d d 0.;.K b %.",
"~ ) } C { g s r 1.D h P y k h 9 -.d >.9 Z ^ O.A.u.lX X XT.{.wX@.@.+.r.U.W.A.B.a.@.X.M j K m h P >.3.:.-.:.;.h.w.0.1.-.:.;.s n } ",
"..1 1 i i  .F F s s m :.y l Z r :.:.l.d j.e ` 7.( }.}.{.!.-XxX}.!.T.a.! A.B.a.u.u.*.7 r C.i %.j.V ,.,.w.2.2.z.w.:.2.z.:.h.| n M ",
"/ ) a < M M F t e f s P y S k Z A :.0.>.R ;.f 7.m '.|.}.a.v.xXIXIXU.+.T.W.B.b.c.u.' 6 j x.%.{ V t w.H 0.w.3.e.q.f.q.l.2.] &.W m ",
"v.n a i { g s : ] s s G J k A G :.f.l.l.A :.1.u S ` N.-X!.lXlXT.U.T.a.T.R.B.n.B.o.| B b M  .K M m h.^ ,.e.e.e.q.f.0.0.j.w.| 7 $.",
"n.n M a b g M s 3.u < F P 9 Z Z :.f.:.>.:.L j.>.9 r H _.=X-XdX%XxX5X=X$Xd.G.V.t.@.*.n n m W j J W | 2.H q.e.S.w.q.0.f.:.:.j.$ m ",
"o.n M ; t [ D m ^ f e e L P J G :.l.:.l.A d u s O &.D j.3.rXvXnX2X-X`.R.G.R.p...X.v.~ 1 &.C < L.,XP.H :.q.S.S.q.0.f.f.>.:.d 7 ] ",
"*.M ; m ; 4.s t k.M r D l.l l :.:.:.:.:.:.j.P P j m f :.d ).|.4X/.W.V.d.d./ X.X.X./ 8.' uXGXiXeX1XoXP.x.g e.S.e.q.:.D.l.2.g.z F ",
"~ t a 5 ;  .f p ] H S S 9 >.P ;.q.:.d -.>.l.d P V W u ` l h.*XtX%X`.s.V./ ..o.@.B.t.X.hXUXhXgXpX@X'.(.m.7.^ F.S.e.f.f.0.-.g.6 f ",
"~ t M t p 1.g.g s F L w k G + D q.d l.d l.:.L r $ M m < r N ;XzXxX;X;X$X6.s.s.<.s.Q.SXHXGXkXsX6X6XoXP.F.8.` ` F.f.l.l.f.0.z.6 t ",
"} i n > K g g p m K D c r y e e ,.d G :.:.d d G M u $.x h > *X:XDXlXwX$XE.d.d.=XmXBXPXLXkXFXuX#X,XoX(.b.O.3.H g f.D.l.e.e.l.6 s ",
"1 1 a O C s K { j r r h k u r e :.u ;.:.:.-.d e t K T N , < 1XzXbXZXzX$X5XaXKXHXCXSXAXLXFXhXuX#X,XP.H.b.k. .F | oXD.l.S.z.l.- h.",
"( 1 n < M m s D V v h r r r y e 2.f :.u 0.:.l.u , 7 7 - : C.MX-XwX4XzXMXMXAXAXnXSXBXCXHXsX0X<X#X,X(.G.s.9.` ~ F 0.D.l.z.z.>.z g.",
"n a C 3 , t V W h 4 h h r + P 9 2.d ;.;.:.;.H l > , 4 ).#X=XwXwX-XxXbXSXSXMXmXwXBXCXCXgXkXfX<X#XoXH.F.n.7.] ^ ` g P.D.z.z.j.w m ",
"' 1   ; ; F : D , 4 h z z h D e H l 1.1.>.;.7.j h L.2XpX:XzXlXzXbXMXBXPXSXNX=XgXdXVXSXkXdX0X,XoX_.H.m.9.6.[ ` ` g J.D.z.f.l.z t ",
"p 1 . a m j t V , & & % # h u k L m G H K P K 5 L.7X:XnXqXtXzXwXnXBXLXnXNXeX=XcXMXdXdXdX0X6XoX_.Q.F.9.6.[ ^ ' ` g J.S.F.S.l.x J ",
"} 5 O 8 J l r M j 4 4 & q , l u r u f H P m x L.@X&X:XtXwXcXtXnXMXAXdXMXqX[.mXtXnXdXrXqXrX#XoXQ.G.m.6.9.[ 4.` { ^ f.F.S.G.h.I K ",
"M 5 3 C < j r b < 4 % q z c l l l y u s W L i /.qXqXwXcXAXMXMXMXMXBXVXmX=XtXgXgXgXtXrX8X<X+XQ.H.m.m.6.9.[ [ ` { g F.J.F.S.D 6 l ",
"8 > ; B < O m j $ & o & v h h k z y D J >.k.(.&XvXcXCXMXCXMXnXmXnXBXdXgX&XBXpXtXdX7X8X<X<X(.(.G.m.b.6...O. .~ ` H J.;.:.1.1.4 N ",
"B < 5 N > $ j + O & & O - & % O - l l r & ` &X:XMXmXSXPXAXcXgXBXnXnXpXJXVXgXrX6XfXhX6X#X<XOXQ.F.s.6.6.[ [ M ' ' 3.l.>.L j.K 7 t ",
"B > x < & O 5 $ z q - * z 4 h h v S , E h.@XnXvXCXmXtXMXHXBXBXmXBXmXVXgXgXrXrX7XfX7X6X#XoXQ.L.M.b.6.3...O.}  .` l.L L P u y 6 j ",
"#.5 5 , > $ j j 4 - # v = 4 z & v h z v L.eXnXgXNXHXAXvXxXyXiXiXgXpX0XGXdXfXrX7XiX6X1XOX(.P.G.m.6. .4.4.`  .` ` L c J K D K x x ",
"8 5 > 5 , , x 4 & - # @ - o & z h x V Q 9XtXqXBXvXJXxX.X}.5XeXiXuXuXCXfXfXfXiX0X0X6X@XoX_.H.b.9.6.4.O.[ [ [ ` { J h m m l V z x ",
"8 3   . , 4 , O O & - $ 4 4 - Q , V W 3XgXjXpXNXvXIX.X}..XyX3XeX9XGXCXiXrX0XrX8X<X<XoX].H.Z.b.6.8.4.'  . .` ` { v - j h j W x 4 ",
"T > X X h 3 x 4 - % * 6 4 z 4 U 4 j I.NXVXVXCXaXJXHXxX5X|.yX3X|.2XGXBXVX9X0X6X6X,X,XoXH.M.b.9.8.4.8. . . .' } m c z , 4 V 4 j x ",
"; . X > x & 3 & o & % $ 7 h 5 U x '.CXSXKXkXSXgXPXPXNXvXaXyX3X).jXNXmXpXeX9X8X6X<X'.(.V.b.5.4.X.8.' ` '  . .` j & 4 4 x V , h T ",
"7 > X > <   x O % z 4 $ $ 4 z =.L.NXCXSXBXkXKXnXSXPXNXpX8X6X1XjXVXpXmXpX7X1X<X#XoXP.V.y.i.5.7.9.` F  .`  .` ` j * * # x h > x j ",
"$ 2 $ X $ O $ h = z 4 4 - - - k.4XPXSXBXVXhXFX7XMXLXHXhX0X7X8XjXGXGX9XqX7X1X@XOX_.G.c.8.4.<.7.` [  .[ [  .` K h & * 4 - 5 N N j ",
"* $ > > $ O 4 & v & $ > $ * T yXeXGXHXmXiXgXVXmXBXBXsXrX7X+XUXuXFXFXhXrX1X#XOX).H.n.7.6.5...` ~ ' .. . ...7.K = % q 4 - 4 x , v ",
"  # $ . 2   j & z & - > $ $.4X-XIXd.BXfXkXhXSXSXSX=XqXdX#XNXpXpXiXdX9X*X#X]._.H.i.5.7.7.4.' ` [ [ [ O.7.O. .O 2 > , O - 4 5 x h ",
"X $ .   > X r - # o 4 5 N 3X{.-XT.E.PXhXhXVXSXSXLXCX=X{.7XgXaXgXtXwX7X&X@X].(.G.5.....t.[ ` ` ' [  .7.7.O.C 4 * $ * > > 4 N x 4 ",
"$ $ $ > > $ h - # h $ 5 $ ^.4XzXr.d.Y.7XdXnXmXSXKXJXNXpXeXiXgXpXtX6X1X,X_.W.V.6.6.4.^ k.` ` [ 3.[ ..7. .O.$.@   . * $ 6 5 7 V h ",
"2 . $ . X $ Q & % o , : x k.wX&X|.d.d.:XsXdXmXkXqX=XrX7XHXgXmXrXrX*XoX_.(.n.t.5.<.7._ ' [ ' ^ [ 7.3.k.7.$.2 * * * 4 6 j < 5 N j ",
"$ $ 2 > > $ , $ &   4 W j <XeXcXJX-Xd.R.gX4X{.v././ #XVXgXgX7XrX#XOX'.(.V.u.t./ ..[ ' ' [ [ ` 4...7.7.7.j 6 * @ X * 5 6 j N T x ",
"$ $ 2 >   $ O & & # > N >XkXeX|.vXzX|.JX5X&Xv.A.c.`.jX0XiX8XoX#X@X_.G.V.p.4.X.O... .^ ( 4. .[ 4.4.7.7.| $ = * * X 6 2 * 2 5 N 5 ",
"  * * * $ 4 j o v h I V aX=X@XOX/.|.[.|.@.aX|.c.A.A.[.jXL.L._.]._.Q.G.s.X./ [ X.X.` `  .4.^ 4.[ 4.7.[ &.2 * X X = 7 3 2 < > x N ",
"X X $ 4 $ . $ x & z   aXvX4X&XQ.W.eXiXpX5XT.c.L.c.c.C.Z.V.@X#X_.(.M.b./ 6.[ c.' ' ' ` O.4.7.[ 7. . .[ 7 - - 2 * X * * > > 5 > > ",
"* * 3 $ $ * 4 4 o &.yX4X4X|.`.`.W.R.V.u.A.c.W.T.n.v.c.A.@X<X'.H.n.9.5.X.X...(  .` } } [ ....X.7.[ [ $.% * 4 4 6 * 6 2 2 > X 8 8 ",
"* X 7 2 2 * # 3 * '.4X4X&XOX).R.W.W.@X^.W.a.A.B.v.X.H.jX3X*X'.H.i.7.X.X._ ' O.` [ ' [ [ X.4.O.8.O.} b 6 = @ 3 V 2 Q I 3 3 ; B 8 ",
"2 * T $ 7 - # @ ,XaXpXeX%X`.`.!.W.Z.[.FXHXjXGX[.'.aX9XjXeX3X_.k...X.X.../ ' ' O.[ 4.X.7.7.7.4.9.O.) 6 6 * X K.T * 3 N $ N 3 8 8 ",
"* * x @ * 4 7 %.|.aXeX2X`.Q.Q.).A.x.uXGXFXjX1XeXjXjXpXiX]._.G.o.X.5.5.u.' ..^ 8...4.8.4...4.X.8.8.N 6 * X T 6 * W =.b *.. '.*.T ",
"2 * 7 X - x 7 L.4XwXqX%X7X_.W.G.Z.hXjXKXKX,X1XKXhXhXfX_.H.N.<./ <.t.p..._ ......5.t.5.6.s.y.y.6.O.j * X X @ * 2 I T W 8 N T 8 #.",
"3 * 6 X > 6 z '.eX*X%X).[.^.W.Z.g hXjXKXFXuXiXiXiXfX6XQ.s.t.t.r.p.s........./ X.5.p.r.<.6.y.y.i.` 6 2 * X 6 . 3 > I.k.) T 7 3 #.",
"2 * 6 * 4 4 V eX=X%X`.`.W.!.R.b.KXFXKXKX8X6XpXCXkX8X_.N.s.r.p.N.d./ 4...X.8.p.p.N.G.n.s.6.s.9.i.| 5 * 2 *     3 7 3 j { #.T 8 *.",
"I x T 2 7 x < ).&XQ.Q.OX`.!.M.4.FXKXKXuXhXFXNXrXfX6XH.G.N.p.d.n./ 4.<.5.7.A.Z.).L.H.F.G.n.s.y.s.%.x 4 * 3 6 7 7 3 2 3 T T #.#._ "
};
