/* XPM */
static char *_60c55b71b19434b9f64caf826a37ec0tnQIQigUKIQWe9wc[] = {
/* columns rows colors chars-per-pixel */
"64 64 230 2 ",
"   c #0F0F0D",
".  c #160D05",
"X  c #150E0B",
"o  c #1C0E0A",
"O  c #0E120D",
"+  c #161408",
"@  c #12120E",
"#  c #1A120D",
"$  c #0F0F10",
"%  c #170F10",
"&  c #0C1311",
"*  c #121311",
"=  c #1A1412",
"-  c #1C1914",
";  c #1A1618",
":  c #1D1B1B",
">  c #230F0B",
",  c #23120D",
"<  c #2B120D",
"1  c #2A1C0F",
"2  c #37160D",
"3  c #231412",
"4  c #261715",
"5  c #2D1915",
"6  c #231A1A",
"7  c #2B1D1A",
"8  c #341C14",
"9  c #391914",
"0  c #331C1A",
"q  c #25211A",
"w  c #2B221B",
"e  c #3A231B",
"r  c #1D1B24",
"t  c #291E22",
"y  c #1F2422",
"u  c #2B2727",
"i  c #332625",
"p  c #3A2926",
"a  c #362D2C",
"s  c #322D35",
"d  c #333233",
"f  c #393539",
"g  c #441D17",
"h  c #4D1913",
"j  c #49221B",
"k  c #5D231D",
"l  c #67251E",
"z  c #432924",
"x  c #4A2924",
"c  c #582A24",
"v  c #45332E",
"b  c #52342B",
"n  c #5B362B",
"m  c #493936",
"M  c #4C3935",
"N  c #553C35",
"B  c #583A36",
"V  c #682723",
"C  c #632924",
"Z  c #63332D",
"A  c #653D33",
"S  c #663D39",
"D  c #5C4036",
"F  c #56413A",
"G  c #59433C",
"H  c #654438",
"J  c #65433D",
"K  c #6A443D",
"L  c #73463C",
"P  c #7D453D",
"I  c #7E4A3E",
"U  c #3D4347",
"Y  c #4A464A",
"T  c #594845",
"R  c #524A53",
"E  c #505151",
"W  c #585257",
"Q  c #5B5A5E",
"!  c #664541",
"~  c #6A4641",
"^  c #644A45",
"/  c #6B4A44",
"(  c #634B49",
")  c #6C4B49",
"_  c #714B44",
"`  c #7E4B42",
"'  c #7C4944",
"]  c #724B49",
"[  c #65514A",
"{  c #7D5146",
"}  c #78524B",
"|  c #685B59",
" . c #745854",
".. c #6B6057",
"X. c #78655E",
"o. c #5C5A61",
"O. c #635A68",
"+. c #715A60",
"@. c #6A676A",
"#. c #776667",
"$. c #7D6C6D",
"%. c #6B6673",
"&. c #726B76",
"*. c #79767A",
"=. c #81473D",
"-. c #824B3E",
";. c #814641",
":. c #844C45",
">. c #894E45",
",. c #864E48",
"<. c #894E49",
"1. c #845145",
"2. c #895146",
"3. c #85534A",
"4. c #8A524B",
"5. c #88594E",
"6. c #875954",
"7. c #8A5B52",
"8. c #88665B",
"9. c #856D6B",
"0. c #936A60",
"q. c #8B736C",
"w. c #897978",
"e. c #907E7B",
"r. c #8D827D",
"t. c #908077",
"y. c #92837F",
"u. c #746E85",
"i. c #7A7485",
"p. c #7B768C",
"a. c #7D7A8C",
"s. c #7E7B93",
"d. c #7D7B99",
"f. c #887B86",
"g. c #827C8E",
"h. c #967E81",
"j. c #827D94",
"k. c #837E99",
"l. c #897E9B",
"z. c #857FA3",
"x. c #7D8385",
"c. c #7F8199",
"v. c #8E8382",
"b. c #83818E",
"n. c #8E888E",
"m. c #938384",
"M. c #998487",
"N. c #948A85",
"B. c #93848B",
"V. c #958A8B",
"C. c #9A8B8B",
"Z. c #858195",
"A. c #8A8295",
"S. c #8B8B93",
"D. c #85829A",
"F. c #89849B",
"G. c #8C8A9E",
"H. c #9A8C91",
"J. c #948B98",
"K. c #969295",
"L. c #A3928D",
"P. c #8482A2",
"I. c #8A85A2",
"U. c #8D89A2",
"Y. c #8A8CAA",
"T. c #908EA8",
"R. c #8C93A7",
"E. c #9997A1",
"W. c #959AA5",
"Q. c #999CA5",
"!. c #9295AC",
"~. c #969CAB",
"^. c #9A9DAB",
"/. c #9498B3",
"(. c #9A9EB2",
"). c #9B9EBC",
"_. c #98A0AA",
"`. c #9BA1AD",
"'. c #9CA2B3",
"]. c #9DA3BB",
"[. c #A5A6AB",
"{. c #A1A3AD",
"}. c #A1A3B4",
"|. c #A3AAB7",
" X c #A1A4BB",
".X c #B4ACB1",
"XX c #9CA3C3",
"oX c #9FAAC6",
"OX c #A3ABC4",
"+X c #A2A8CA",
"@X c #ABB4CA",
"#X c #B9BBCC",
"$X c #A5AED4",
"%X c #A5B5D6",
"&X c #ACB5D5",
"*X c #ACB8D5",
"=X c #AAB6DA",
"-X c #ADBEDA",
";X c #B1B9D6",
":X c #B1BDDC",
">X c #B2BFE0",
",X c #AEC2DD",
"<X c #B7CDD7",
"1X c #B1C3DD",
"2X c #BAC8D8",
"3X c #AFC4E0",
"4X c #ABC9E6",
"5X c #B2C5E1",
"6X c #B4CDE5",
"7X c #B8CDE7",
"8X c #B5D0E5",
"9X c #BCD3E5",
"0X c #BBD8E7",
"qX c #B6D4EA",
"wX c #B6D6EB",
"eX c #B7D7EC",
"rX c #B8D5EB",
"tX c #BAD4EB",
"yX c #B6DAEC",
"uX c #B8DAEC",
"iX c #B9DBED",
"pX c #BADBED",
"aX c #B8D9EE",
"sX c #BADAEF",
"dX c #B7DCF2",
"fX c #B5DAF5",
"gX c #BADBF0",
"hX c #BADCF1",
"jX c #C2D3DE",
"kX c #C2D5E7",
/* pixels */
"eXeXeXwXdXeXeXeXeXwXeXiXeXeXeXeXeXeXeXiXaXaXtXaXaXaXtXtXwXtXwXyXiXeXuXiXiXiXiXiXgXgXgXgXaXtXgXeXdXgXiXiXiXiXiXiXyXiXiXiXiXyXiXiX",
"tXeXeXeXeXtXeXwXeXwXwXtXeXeXeXeXeXeXeXeXaXaXaXgXaXtXeXeXtXiXiXiXiXiXiXiXiXiXiXiXiXgXyXgXqXeXtXgXiXgXgXiXiXiXhXiXiXiXiXhXiXiXiXiX",
"eXeXeXwXeXeXeXdXeXwXwXwXiXeXeXeXeXeXeXtXeXtXyXaXgXaXiXqXwXiXiXtXiXiXyXiXeXiXiXgXiXgXgXhXqXeXyXiXiXgXtXgXiXgXiXgXiXiXiXiXiXgXiXgX",
"6X8X6X6X7X6X6X6XtXwXtX6X6X7XtXqXtXtXqXtXtXgXaXaXtXdXtXtXwXhXwXiXeXiXiXiXiXiXgXiXgXiXgXgXtXtXtXdXiXiXhX6X6X,X1X,X,X,X1X1X1X1X1X1X",
",X:X-X-X-X-X-X-X,X,X-X>X-X-X>X-X:X>X-X-X-X-X2X1X1X6XeXtXqXeXiXiXiXiXeXiXiXeXiXiXiXiXiXiXqXeXtXiXiXiXiX5X6X,X3X,X1X,X3X5X,X,X4X1X",
",X-X-X-X-X-X-X,X-X,X-X-X-X-X-X-X-X-X3X-X-X,X,X,X,X5XtXqXeXgXiXiXiXyXiXeXiXiXiXiXiXiXiXgXeXtXgXdXgXiXyX,X5X3X3X3X,X,X5X,X1X,X1X1X",
"-X-X:X,X-X,X-X,X-X-X:X-X1X1X-X-X-X-X,X-X-X-X1X,X,X4XdXtXtXtX0X0X0XiXeXyXeXiXyXiXgXiXeXgXtXeXeXtXgXgXiX5X1X,X,X5X4X,X,X3X,X,X6X,X",
"1X3X-X-X-X-X,X,X,X*X-X-X-X-X:X-X,X-X,X-X-X-X1X@XR + @     @ X @ @ @ @ = u Q.iXiXiXhXiXgXqXtXiXgXgXtXiX1X1X6X3X5X3X5X3X5X3X6X5X5X",
"-X*X-X,X-X-X-X1X-X,X-X-X1X-X:X-X,X,X,X-XS.* - & & @ & - * & & - * * * * * & X @ Y kXfXiX6XeXgXtXaXgXiX,X,X,X3X,X,X,X,X,X,X3X3X,X",
"-X-X-X-X,X,X-X-X-X-X>X:X-X-X-X-X,X1XF & * O - * - * @ * @ @ * @ + * & * O * * * * * @ 2XfXeXaXgXiXiXgX,X5X3X1X5X,X5X,X1X5X,X5X,X",
"-X-X,X-X-X&X-X:X*X-X-X-X-X*X-X&XQ + @ @ & @ * & & @ @ @ @ @ * & * * @ * * * $ * $ X @ X @ jXeXdXdXiXhX3X5X1X,X1X1X,X,X,X1X,X,X1X",
"&X*X;X*X:X*X-X*X-X&X;X&X;X&X@XX @ & - @ * @ * * * @ & * & - @ & @ * @ * O * * @ & & X O & & s eXdXiXiX8X]. X].].).). X!.!.!.!.!.",
"I.D.P.U.U.$XA.Z.d.d.k.F.F.R @ = & @ - @ @ & & - * @ @ * - & @ & * O @ * @ * * $ $ @ * * X & & . kXiXiXgXA.Z.Z.D.I.g.F.D.s.D.Z.U.",
"Z.D.U.F.c.-XD.F.D.P.l.I.u @ @ * - & & & @ * * @ & * * * & O @ - & @ @ @ * O * @ $ * $ $ $ $ $ $ @ [.gXyXl.k.Z.Z.A.A.j.A.j.l.a.j.",
"!.Y.!.!.Y.$XR.I.!.Y.Y.u = * * * @ @ & @ @ @ @ & & + @ @ @ @ @ & @ * @ @ = @ @ $ * X & * * X * * & * o.gX].XX).XXXXoXXX].oX+X+X+X",
"s.k.D.P.P.%XZ.j.P.D.f $ * # * * @ & + @ @ @ + & * O @ @ @ @ @ & @ * * o H @ @ @ $ @ * $ $ * $ * * * * E A.p.d.F.Z.F.j.k.j.j.Z.s.",
"XXXXXXy ).@X'.XX(.O.@ * + * * * @ * * * * & O @ * * * * & @ - & * @ @ J 4.X * * $ @   $ $ * & X @ * * * f S.D.D.D.D.Z.F.j.g.j.Z.",
"k.I.k.p.u ).j.F.b.@ @ * * * * * @ @ * * * - * @ @ & & + @ @ + & * @ # :.:.g * $ X $ $ $   * * * * * & * @ &.U.U.U.U.Z.G.G.T.!./.",
"F.k.j.l.r 6 j.k.r @ $ = @ * * * @ * * * * * @ @ * @ @ @ @ & O @ @ * b ` 1.6.* $ & * * $ $ $ * $ * & * * @ * j.k.a.Z.k.j.Z.D.F.j.",
"D.l.u p.F.= @ u @ X * ; * = * = * * * & * @ @ @ * @ & @ @ - @ @ O o :.,.3.:.@ @ & X & * X $ $ * * * X * @ * ; l.F.a.Z.j.F.j.D.k.",
"D.D.a.* W G.@ # E 9XB b 0 4 % @ * @ * @ * & * & + * * @ @ * * * @ A -.<.;.,.e *   & *   X * & * $ * @ ; & * * &.Z.a.Z.Z.g.p.Z.G.",
"Z.j.d.A.* * 6 * 0XE.) ~ J ^ * * * @ @ * * f : + + - * @ * * @ * o 3.:.<.,.,.} * * X $ * & @ $ * & * * * * @ & ; j.F.Z.D.F.F.D.D.",
"U.&.j.j.A.; @ + dX .K ~ ~ J * @ * * @ * * kXhXhXhXhX<XR.d = X X ,.<.,.:.4.:.{ * & O * & @ @ O * * * * * * + * * f.Z.j.k.j.k.j.&.",
"j.u.- * * ; * Q hX/ H ! J J * @ * * * * * * jXhXhXhXgXx.* + = 4.:.:.<.:.,.,.4.g X X * $ & @ * * * * & * * @ * * u l.D.Z.Y k.s a ",
"F.F.P.O.- X * 9XiX] ~ ] J J @ @ * - & O @ * @ - u - + # = * @ :.' ,.,.:.,.' -.b   X O iXkX#X@.6 # + * @ * * @ * * D.D.t l.s.# T ",
"Z.j.u.F.j.A.@ gXgX| ! J ~ S # = * * @ @ * * & @ @ @ @ @ * * = I ;.;.` ;.;.:.;.X @ @ * a fXeXiXdXhXyX+ * & + * @ * * @ E c.s.R w ",
"k.a.j.F.j.Z.= dXhXS.^ / K ~ ! * * @ & * @ O @ @ @ O O * * @ # I :.:.,.3.;.,.:.*   * * * ; 2XhXdX<X; * * * @ = *   6 L.| @ &.: g.",
"j.g.g.j.F.a.# gXhX;XS / K / / 7 @ @ - * @ @ @ @ * * * * @ @ B 2.:.4.;.:.;.:.A 0 @ @ @ @ * * - % * * * * * * * @ = = * @ C.* o.P.",
"k.j.j.j.s.a.- hXgXyXK J ~ ] ! K + - @   * @ @ @ * * O * * B x -.:.;.<.<.4.;.x / + @ @ @ * * * * @ * & * * * * # 3 : p B.F N.* D.",
"D.p.Z.Z.j.g.@ hXhXfXH./ J K ~ J K p # @ & @ * * * & X = J J x 3.>.;.:.<.<.I b _ , @ * & @ @ & * * * * * * * O ! 4 * + 6 H.m.f j.",
"j.a.F.j.s.F.; kXhXhXhXT J J ~ ~ [ ^ ) p # @ * * * - H J / ! L ,.:.,.<.:.4.-.n ~ / - * * * @ @ @ O @ * O & O 5 S 3 i tX[ p $.| d ",
"s.Z.j.j.k.A.& @XhXhXhX<XJ K ! J / H ~ / ] ] ~ K K K J ~ ~ J 5.4.<.<.:.:.,.:.B S / / + * & @ @ @ @ @ * * $ 4 S ~ 3 | 4XS.T 9.M , ",
"Z.s.k.j.p.D.; f hXhXhXgX].L J / J ~ ~ ~ ~ J ! / ) S J / J x :.P <.,.,.<.:.<.n B K H ] 3 + * * * * * O * x ) ~ ~ % E.6X6X( V.V.- ",
"j.g.j.j.a.F.* * dXhXhXhXhX#X/ ) ) J ! J J ~ / / / ] ~ _ w.6.;.:.,.<.<.;.;.:.~ / / ~ ^ ! } p + + # # b ) J ~ ^ ~ $ 2X6XtX) A.N.: ",
"j.s.a.k.a.A.* o uXgXhXiXhXhXpX+.A ! / / ~ ~ K ~ ~ S ) wX[ :.:.>.<.,.;.,.,.` ) ^ J J S ~ ~ J ~ J D ~ J J ~ _ ! ! % tX6XqXG V.r.@.",
"j.F.g.Z.D.D.* @ U hXhXhXhXhXhXhXuX$.~ ~ H H ~ ) +.jXhX[.<.:.<.<.:.,.<.<.;.P 3.0X~ ~ ( / ! / ~ ) K ) K ~ / / H N . tXqX2X[ w q ~.",
"s.p.D.j.k.A.@ & + T uXiXiXhXhXhXiXgXiXgXkXwXtXgXhXkX.X7.:.:.<.:.,.,.;.,.;.,.` <X0X~ ) / ! / ~ J / J K K J / #X+ *.7X6Xf v.N.6 ].",
"A.j.p.j.Z.g.= X + 1 L kXuXyXhXhXhXhXhXgXhXhXgXeXhXC.4.<.,.,.2.4.,.>.<.:.<.<.:.B hXgXK./ } ] J / / ) K K H.hX9X@ tX7X7Xy.v.- g.XX",
"g.g.A.g.a.j.= * * # _ 4. .9XdXhXhXuXiXhXiXhXeXjXn ,.,.' ;.:.:.,.;.>.:.:.:.<.,.` |.iXiXiX1X#.) ^ ~  .}.iXyXdX+ M 6X7XT m.T Y l.+X",
"k.F.k.F.k.g.@ * * @ @ 3.,.4.n N.kX9XtXuXkX.Xb 4.5.>.<.,.' :.5.n h c { :.,.4.:.` 4.2XuXiXiXiXhXhXhXhXhXhXhX<X* tX@Xq.m.@.; j.l.$X",
"u.F.j.D.s.g.X * * * * , 1.3.I 1.5.1.5.,.` ` :.1.:.;.;.3.;.h V V l V C k <.,.;.;.` 7.V.iXkXhXhXhXhXgXhXhXhX# ..w.C.0 $.X g.A.k.$X",
"; @.k.k.j.j.= * @ * * @ 5 1.` ,.4.1.;.:.:.` :.,.>.,.,.L C C g 8 < 2 V c :.,.<.:.:.4.,.' #XhXhXiXiXhXhXkX: # q $.B.M.M W k.k.D.%X",
"%.@ Q k.k.j.* * ; * * @ + , 4.-.-.:.<.,.,.,.:.:.:.-.' c 8 = = * ; * X c c ;.,.,.,.,.,.:.-.3.n B ( F c , * | 5 m.B. .: j.k.s.d.=X",
"k.@ @ s a.k.* * * * * O * * # 1.:.:.3.,.:.;.,.,.<.:.g 5 * * @ @ * % X < g ' ,.4.;.;.,.4.<.,.:.4.-.,.< o 9.m.H.m.9.4 g.D.s.s.k.=X",
"Z.Y + * 4 g.@ * * + * @ @ X @ o S :.:.:.3.;.:.=.I 9 6.6.0.} # @ & & $ # A <.,.4.:.:.;.4.,.:.:.,.4.o @ M.M M V.C.$.u a.s.g.Z.j.=X",
"Z.j.= = * @ @ * & @ @ * * * * @ * < 1.:.,.:.<.:.<.9 j C V C C c g < @ = 5.,.:.,.<.,.:.;.:.,.-.n @ i m.y.M 9.C.C., Z.j.j.Z.F.s.$X",
"j.F.Y X * @ * * * * * * * * @ * @ @ * b <.` :.:.,.,.4.j g h k l V l l 9 <.,.,.4.:.:.' ' -.{ # @ [ [ w.G N.L.t.v u Z.F.p.D.k.s.-X",
"j.s.g.* @ @ * * * * * * * * * & * * @ @ X 9 5.4.2.<.2.>.>.:.Z h g 2 2 I :.:.:.,.:.:.3./ , @ d 9.N N.m.q.T M X.@ a.p.j.k.j.D.s.=X",
"j.Z.s.%.* @ * * * @ @ @ @ * * @ * ; * * * * = o B 3.2.1.` -.;.<.` I ,.>.-.:.-.3._ > # O : a H.5 i N $.m.N.M.L.: F.x.D.Z.D.s.j.%X",
"D.Z.p.j.: + * + * O @ @ & @ * * * * & * * * @ . @ O @ + 3 j S 5.3.:.,.K g , o = X @ @ * + m.5 K.@.v +.T N.C.4 i.D.F.U.F.s.D.j.%X",
"D.Z.F.D.k.= @ * @ * * * & - * & & @ O * * - [ N G @ , ] j 4 o * * ; @ * @ @ * @ * * * * * * - 4 < w.i a | f s s.D.s.a.a.D.c.j.%X",
"k.s.Z.D.k.W * * * * * @ O @ @ @ @ * * * + G F N F # ` >.<.3.1., @ & * * * + * * * $ * * #.M & [ ; B.f.H.4 # j.j.j.D.D.a.a.s.a.@X",
"j.g.j.Z.F.j.6 * - @ * @ O + & @ @ * * + = F F N M , n 2.:.1.:.` 7 w + * + * * * * = * = 7 T @ z o . . . 0 @.j.g.j.F.Z.c.j.s.A.@X",
"j.p.j.U.g.k.g.+ * * * * + & + @ * * * * M N F F N q w.M.^ 9 2 2 + T T F w # @ O * * * u # [ e -.>.=.P -.o A.D.D.G.D.a.i.j.s.k.OX",
"j.d.i.F.j.l.l.&X* @ & @ * * & O O * * @ G F G F F t M.C.y.r.w.y.V.3 F N J 1.7.g # * @ .X* L.4.1.;.:.,.{ X F.z.c.D.j.k.j.l.j.A.+X",
"j.j.j.D.k.j.l.=X&.* - * * @ & + * @ @ + F G G G F w h.m.V.V.m.B.H.w.7 M -.` ,.<.-.5.z ( 0.#.2.:.;.P :.8 o.F.d.s.j.F.j.j.g.j.i.OX",
"D.Z.k.Z.F.F.k.=Xd.E * * + * * * % O * @ G G F F F q w.C.C.C.q.w.8.) #., 2.<.:.:.,.I n 0 c , >.4.;.` 1.. Z.U.Z.F.k.j.j.k.D.D.A.+X",
"k.j.F.F.G.j.F.%XD.D.W * * * * * * @ * # 9 8 8 e z 6 m.J.L V V l l 8.K.#.* ` :.:.4.3.x v T 5 j 1.1.:.< [.I.D.Y.D.P.z.P.z.F.D.A.oX",
"^.R.'.^.^.(.^.'.'.Q.'.@.* + * * * @ * 8 <.<.-.-.<.x B.M.P Z } L C V.V.m.0 { 4.' 3.3.:.2X@.e # < ,.S @ {.(.]._.`.(.~.'.^.(.}.Q.(.",
"`.K._.`.^.`.(.W.`._.'.'.x.* @ @ @ * * 5 <.<.2.<.4.x m.N.H.V.y.l L K.m.m.O 8 5.4.` ,.:.3.} < 2 9.0.. V.^.^.`.}.].'.}.'.(.].'.`.'.",
"E.^.^.~.{.~.E.E.W.^.Q.W.K.^.@ + ; O @ e <.<.<.:.{ z w.e.v.V. .l 9.v.m.w.* * X 3 b 3.5.,.>.A z v @ w._.{.W._.'.'.^.'.`.`.}._.`._.",
"_.'.`.~.^.'.^.'.`.`.^.~.'.].`.u @ @ * 5 :.,.,.,.:.b q.v.m.n.Z V y.N.C.= @ @ O # [.Q 6 @ @ @ = 8 @.^.}.^.Z.J.n.n.J.S.G.b.b.b.A.x.",
"}.{.W./.^.[.Q.^.(.).'.'.!.'.'._.S.+ ; , 4.:.<.,.3.A #.C.V.q.l } K.K.i @ @ # U wXtXqXtXtXaXOX`.f w.].'.'./.'.`.^.`.^.Q.Q.Q._.~._.",
"`.`._.'.}.Q.|.^.].~. X X].].'.`.~.].K.# 7.:.:.:.<.n  .e.N.v.q.N.V.a O = O.9XwXqXuXwXwXtX9XOX_.`._.^._.~.`.}.}.'.(.(.|.'.'./.'.~."
};
