/* XPM */
static char *_c1bfbdbde6b4375bdfd521607ca99d7KXwquMdVFcbrPmWf[] = {
/* columns rows colors chars-per-pixel */
"64 64 237 2 ",
"   c #000001",
".  c #090907",
"X  c #04030B",
"o  c #09050D",
"O  c #0B0A0C",
"+  c #100C0F",
"@  c #050412",
"#  c #090613",
"$  c #0C0A14",
"%  c #03061B",
"&  c #090819",
"*  c #0D0B1A",
"=  c #100E15",
"-  c #110D1C",
";  c #0D101D",
":  c #121215",
">  c #13121C",
",  c #19181E",
"<  c #251D1C",
"1  c #080A24",
"2  c #110D25",
"3  c #0E1128",
"4  c #151223",
"5  c #1A1524",
"6  c #1C1A25",
"7  c #15132B",
"8  c #1A162A",
"9  c #17182C",
"0  c #1D1A2B",
"q  c #0F1534",
"w  c #1D1C31",
"e  c #1A1935",
"r  c #211E27",
"t  c #211E2C",
"y  c #231E32",
"u  c #261F36",
"i  c #1F233A",
"p  c #25232A",
"a  c #24222D",
"s  c #29292E",
"d  c #252335",
"f  c #292435",
"g  c #2D2B33",
"h  c #26253B",
"j  c #2A263B",
"k  c #252C3C",
"l  c #2D2A3C",
"z  c #322D3D",
"x  c #353339",
"c  c #02134D",
"v  c #1C1E44",
"b  c #181F56",
"n  c #1B2347",
"m  c #172353",
"M  c #2D2C43",
"N  c #282949",
"B  c #312E44",
"V  c #2E314D",
"C  c #343245",
"Z  c #393547",
"A  c #3C3B43",
"S  c #35334B",
"D  c #39354B",
"F  c #373949",
"G  c #3B3B4D",
"H  c #272B54",
"J  c #2C3256",
"K  c #353553",
"L  c #393552",
"P  c #3C3B54",
"I  c #353859",
"U  c #34395B",
"Y  c #3C3C5A",
"T  c #2A3665",
"R  c #343A62",
"E  c #3D3D61",
"W  c #353B6A",
"Q  c #373E74",
"!  c #413D4C",
"~  c #403D55",
"^  c #423F5C",
"/  c #3D405C",
"(  c #3D4164",
")  c #374269",
"_  c #3D446B",
"`  c #3C4472",
"'  c #3A4676",
"]  c #3D497C",
"[  c #44424A",
"{  c #494856",
"}  c #43425C",
"|  c #4C4B5B",
" . c #434464",
".. c #484765",
"X. c #464865",
"o. c #4B4B64",
"O. c #43466B",
"+. c #45496D",
"@. c #4A4A6C",
"#. c #4D566C",
"$. c #565667",
"%. c #424772",
"&. c #454B73",
"*. c #494C73",
"=. c #444C7B",
"-. c #494E7B",
";. c #4B5273",
":. c #46507B",
">. c #4A517D",
",. c #535672",
"<. c #596075",
"1. c #696A6C",
"2. c #354782",
"3. c #3B4B84",
"4. c #3B4D8B",
"5. c #3E518D",
"6. c #384E95",
"7. c #3E5393",
"8. c #375299",
"9. c #3C559C",
"0. c #3F599D",
"q. c #3C55A2",
"w. c #3D59A4",
"e. c #3857AC",
"r. c #3D5CAC",
"t. c #2E5BB5",
"y. c #355BB4",
"u. c #3D5DB3",
"i. c #375DBA",
"p. c #3B5FBA",
"a. c #3D63AA",
"s. c #3D61B6",
"d. c #3563BD",
"f. c #3C62BC",
"g. c #444E84",
"h. c #434F89",
"j. c #455184",
"k. c #4A5383",
"l. c #44548C",
"z. c #4A558B",
"x. c #48598A",
"c. c #4C588D",
"v. c #515987",
"b. c #455593",
"n. c #495693",
"m. c #455995",
"M. c #4C5A93",
"N. c #43569B",
"B. c #49569B",
"V. c #44599C",
"C. c #4A5B9C",
"Z. c #505790",
"A. c #55628C",
"S. c #4E609B",
"D. c #53639D",
"F. c #787D90",
"G. c #445BA3",
"H. c #445AA5",
"J. c #495DA4",
"K. c #425DAB",
"L. c #415EB3",
"P. c #4B64A6",
"I. c #4461AD",
"U. c #4A64AC",
"Y. c #5265A4",
"T. c #4362B4",
"R. c #4A65B4",
"E. c #4968B6",
"W. c #4364BA",
"Q. c #546BB1",
"!. c #345DC1",
"~. c #2C64C7",
"^. c #2C64CC",
"/. c #3563C3",
"(. c #3A65C3",
"). c #3768C6",
"_. c #3D69C5",
"`. c #3365CC",
"'. c #3A66CB",
"]. c #3569CE",
"[. c #3A6ACC",
"{. c #3874CA",
"}. c #2E67D4",
"|. c #2969D5",
" X c #2C6CDB",
".X c #3266D2",
"XX c #346AD3",
"oX c #3A6CD3",
"OX c #336DDA",
"+X c #3772D3",
"@X c #3371DD",
"#X c #3B72DB",
"$X c #1D6FE2",
"%X c #2D6FE1",
"&X c #346FE0",
"*X c #2C73E5",
"=X c #2B75EB",
"-X c #2877EC",
";X c #3374E4",
":X c #3A74E6",
">X c #3275EB",
",X c #347AEC",
"<X c #3A7CED",
"1X c #2F74F1",
"2X c #2D7BF2",
"3X c #337CF2",
"4X c #397EF2",
"5X c #4165C3",
"6X c #4369C3",
"7X c #426ACB",
"8X c #4672CA",
"9X c #416AD1",
"0X c #4677D9",
"qX c #5079D6",
"wX c #417BE7",
"eX c #778AAF",
"rX c #3A81ED",
"tX c #3481F4",
"yX c #3C84F5",
"uX c #3C84FA",
"iX c #5A83D3",
"pX c #608BD6",
"aX c #4586EB",
"sX c #4184F4",
"dX c #4A86F3",
"fX c #4389F5",
"gX c #4C8CF6",
"hX c #4287F9",
"jX c #448AFB",
"kX c #4B8EFA",
"lX c #518DF4",
"zX c #4D91FC",
"xX c #5393FC",
"cX c #5A97F9",
"vX c #5498FE",
"bX c #9791A5",
"nX c #BCC0BC",
/* pixels */
"      Z /   4 } c.s.W.).f.r.V.w.u.s.e.oX:X;X].u.f.f.i.[.aXcXkX,XfXrXyXzXvX).6./.oX XXX}.`.OXOXXX_.G.k.X.L S Y  .^ D X   f X     ",
"      $ r     @.B.s.W.r.N.V.G.w.s.i.].OX Xd.u.d.(.u.w.N.}.zXzXzXkXyXzXvXzX9.w./.^.OXXX`.XXf.w.d.s.J.k.M w w Z * z X             ",
"        p   0 G %.M.=.l.b.B.G.G.7XoXOXoXu.s.s.f.p.u.e.K.#XzXvXjXtXyXvXgX,X5X].&X@X.X].`.].u.m.-.O.&.( P * @ r $   .             ",
"          X f B C M  .z.l.n.w.(.oXoXs.e.s.(.s.s.d.[.[.b.`.uXyX2X$XyXuXtXyX&X~.@X*X:XoX`.u.B.&.P B y D C l 4                     ",
"          0 * $ > l Y +.=.7.f.7X(.u.w.r.u.s.L./.oX(.h.b t.hXuX2XtX-X2XyXdXs.] 8.!.#X@X@XG.P j d 5 X X $ 2 > :                   ",
"          0 -   @ d D / B.s.f.s.9.0.T.T.r.L./.#X3.M  .=.#XkXjX,X-X*X-X2X@X4.=.=.J.L.w.4.g.} y 4 @ X     X 5 X X                 ",
"          4   X - 7 M k.G.K.G.b.b.H.r.K.r.oX#Xw.O.%.j.c.9.|.-X|.=X|.|.}.t.=.g.z.z.E d y * P F C X X           - :               ",
"          .   X > 0 ~ &.b.] :.M.B.H.H.K.'.].(.h.&.+.@.*.(.3X,X2XuXuX=X,X~.] -.Z.V * @ X X   t d 5           X p $               ",
"          .     - D { O.Y X.-.x.b.b.T.(.f.r.G.%./ K /  .9.jX4X).7.q./.;XOXT g.P t > $ # X     # r r   X     , X                 ",
"                * l D 0 D } +.=.h.J.W.L.b.b.B.(  .D P X.b *XoX3._ ( N.!.7Xb.Z.d @ @ X X $ X     X t d       .                   ",
"                # 5 @ 5 j G Y %.l.G.V._ %.%.*.k.&.Y c.*.D.:XoXU.G.l.G.oXs.R } u 0 @ X   X X       X X                           ",
"                  X   * t M Y ;.x.x.%. .h D  .O.=.G.U.) Y N n V X.n M * $ $ X j l d 5 X X X X X         5                       ",
"              X       # 7 h } @.O./ P 0     o &.M.x. .} X.M J ] b.B. .8 t $ X   $ t d 6 6       X     . @ X                     ",
"                        2 Z / } D C $       $ L @.D L M P I.).j.C.P.h.J.N .       X X > d X     - X X   X                       ",
"                        d B x 0 d -         > o 6 G M y % r._.H     k.r.P.        X   X 5 = l l 4 * X                           ",
"              .       = t 5 X 5 a             X > C C ^ U r.e.Y & * _ l.z.X       X       ,.D B 6 @ X                           ",
"                      X #   @ *               X 8 t 8 y >.h.P.) M.U -.D.k.a X         o 3.eX .y y @                             ",
"                      X                         u 8 > 5 D ~ % Y 3 M h   X 5       > u y P...@.$ X $ X                           ",
"                                              : 5 5 - & ~ Y ' ' ` ' P X       = > 5 5 5 U. .*.0 $.X                             ",
"                                            - 4 - 4 - X O.(.0X5XC.M.] M.e 5 : r - * - 2 I.X.J ! <.                              ",
"                                          X $ 6 v.eX6 . G.`.#Xn i e B./.R.o o - $ # * - x.Y S X.@                               ",
"                          z o.A $   X       Z #.c.S.z $ 7.t.'.U 2 e m.L.C.# $.} B u 8 U N  .A.~                                 ",
"                          . Z u 5 p   . X X 4 M &.( 4 >  .s.).C.6XG.r.6X' j 5 t t & . X > s                                     ",
"                          X x # $ X O   $ [ w C +.* - 0 g 5 =.3.T Q &.2 8 z o # $ *                   X * . O       X   : t $.  ",
"                            X , $ , x o x j G M @ $ * @ 6 n x.E.j.j.-.# X   X X - #                   X 9 l A   X   s , X 3 {   ",
"                                : X $ 5 0 5 d #.1 X X g l.d.w.P.x.l.V.B.e o X # $ #                     { d d p $ : : t @ P X   ",
"                                s r X X : $ 7 k <.X   1 7X).C.k X 3 E.f.M.    # # X                     X [ : # # g | # | g .   ",
"                                g O O x   X f o.7 & & q a.y.) > j 4 C.H.S.X X & # X                       x g   Z   . 8 d X     ",
"                                  . X   . . $ , 8 - X a O.7Xm.k.Y._ V.S.X.X # 5 5                         [ :     o o > $.      ",
"                    X |                       $ X X O Z o.l.C.m.J.3.x.o.M .     X                         X f O   . s A .       ",
"                    .   a                         X       4 @  .w } d X X                                                       ",
"                    X   X g                           F U.E.m.Y.D.E.U.R.h -                                                     ",
"                  .     p Z                           _ [.7X*.t  .9 W.[.R               X           X , = .                     ",
"                  O 1.  5 [ . o /   0 | O       X X X Q.K.w.k 2 & 8 G.T.E.X   X       a f 9 g X X   | , : [                     ",
"                x       : ;.: .     X [       . * :   k.L.6XJ =.H.Y I.T.k.@           X * i > i Z j - 6 < X                     ",
"                . + 1.. 5 O [ X   . p           X   $ 8 H L.H.K.5Xw.G.H & , X           $ X $ # C | O . s                       ",
"                g / s     = O   +                   0 1 T W W R 2.J.T J.Y.l X             f # 6 ; X   nX{                       ",
"                          X , # {                   X =.b.e @ L o.# U h.( X X             , G X X .   | |                       ",
"                        X { bX1.                  @ Y.u.5XR j K V N I.(.W.C.                d F.      X                         ",
"                                                  d :.s.8Xl.O.H.Q.h.5XoXb.L o X                                                 ",
"                                                  p &.a.).V.B.L.6Xw.5X(.s.;.$                                                   ",
"                                                  @ C.p.G.( q M.H u G.(.W.R     X     X                                         ",
"                                      X X     .    .m.T.l.X   7 2 X X h.b.z.X 4 # X d t X                                       ",
"                                  X   p g X @ 5 D M.V.H.R.h.v.Q.J.J.W.p.K.K._ j $ z 7 t &   X                                   ",
"                              X 5 , o } h M 0 - 8 %.b.0.r.G.C.K.q.e.f.f.5. .3 * l S l j | t d 6                                 ",
"                            @ 0 S @.z.v.:.X.h 0 B ( &.2.s.N.H.[.p.L.d.).] ( P P ..^ +.-.-.>. .f                                 ",
"                  X X # 8 8 l B _ V.B.V.G.]  .X.&.-.O.H 6X#X X<XsX+X{.W.g.l._ &.>.=.m.M.x.g.k.P a 7 2 X                         ",
"                X $ t 0 4 P ^  .b.W.e.W.e.T.=.=.=.V.L.T.s.OX}.,X:XOX.Xu.K.7XT.x.c.l.I.H.l.g.j.>.U B l 0 #                       ",
"          X   > 8 h B D ~ O.k.g.I.T.u.p.OXc b.L.i.qXn 5 3.6X` r.f.T.s.J w K V.W.N.` qXI.b.l.h.x.+.Y G f 5 X X                   ",
"      : B M M M S D }  .%.k.b.J.s.f.[.(.aXf.#XXXf.V.U.b.b.=.T [.u.=.=.=.-.=.g.G.(.r.oXT.C.J.n.z.-.Y D C d 8 4 4 $ X *           ",
"      & } *.&. .( O.O.%.k.z.G.K.p.f.7X!.}.}.#X.Xu.8.z.%.v P.&.3.m _ v.V U ' Y.l.g.V.r.V.H.u.w.b.g.X.} P S B B B C C - X         ",
"    . 4 o.k.B.B.n.j.l.b.N.V.q.K.p.oX'.i.y.#Xp.oX9XL.L.N.Z.(.9Xa.W.R.R M >.k.%.z.n b.U.6.r.T.T.M.z.-.O.X.Y ~ P }  .D 8 X         ",
"    > l *.z.K.W.L.K.G.I.u.5Xu.f./.#X:XwXy.E.W l.f.q.M.g.&.8.#X9.W h.>.% o.&.%.=.V I M.L.0X;X(.w.b.G.l.g.%.*.O.*.X.P f 2         ",
"    & D &.n.T.(.(./.d.y./.OX].(.XXkX8X% S P *.&.7.W.T.G.=.H.(.C.N Y w ;.-.%.O.K I ^  .y @ 0X;X/.e.u.T.G.l.c.z.x.-. .C 0 .       ",
"    7 0 O.H.s.(.XX].`.`.<X:X,X3X4XlX3 8  .*.-.z.l.l.K.m.R W.[.4.:.D.K 2 z.>.P  .*.@.O.P * 1 yX,XOX].'.L.G.V.V.B.:. .Z 0         ",
"  # y Z D C.s.`.OXOX XOX;X;X3X,XkX8X7 l @.-.k.z.z.j.l.b.R G.W.b._ X.4 X } S e I @.O.@.~ d & gX;X@X`.!.6XT.e.G.V.-. .D X         ",
"  2 B P ~ O.s.'. X*X*X%X X X XyXgXa.j D X.:.=.-._ =.%.l.Y g.P.3.l._ 1 # G o.B I @. .( } j w gX:Xd.d.p.f./.(.s.G.&.~ - #         ",
"  t D } @.&.u.~.;X,X4X*X%X X}.|.XXpX/ } O.&.U h L 9 w U } l.K.K.7.x.V h o.^  .@.E P  .} C T ;Xy.y.oX~.).(.[.p.K.` D t - X       ",
"  h P O.*.>.V.XX>XuX1X3X=X,XyX X|.aX) / X.&. .Y P K f & D B.s._.6Xs.I.c.( +.+...Y } +.^ K xX`.d.;X>X;X X].`.].L.k.h j 4 &       ",
"o S  .&.>.l.l.8XwXdXkXcXvXxXrX,X@X|.iX) %.-.n.n.B.J.J.b.m.K.(.'.f.N.N.m.z.g.*.E  . .@.Y 7X,X~.<XhXvXsX,XzXkXgXXX] C Z 0 - X     ",
"- P O.k.z.b.V.N.(.kXyXzXzXkXyXuXzX,XaXw.g.x.b.B.C.C.w.w.H.u.XX9XW.K.r.G.J.C.V.C.=.U O.J.fX4X,X3X,XyXyXyX*X;XrX2.} P D d 0 X     ",
"0 E k.B.b.C.H.L.y.}.,XkXxXgXxXvXjXkXgX#Xb.=.l.b.b.N.K.V.w.T.oX(.u.K.r.a.H.V.9.G.C.b.H.p.<X1X*XxXfXhXjX3X=X}.n.U X.~ ~ j w #     ",
"j ) z.V.B.G.L.'.OX X=X2XjXlXgXcXjX4XcXaXxXQ n.b.b.0.H.V.0.u.XXp.u.r.a.K.G.G.N.K.G.4.I.cXwX3X*XgXuXjXuX2X-X^.H.z.@.O.} d t $     ",
"C &.B.J.G.L.u.oX|.yXuXfXvXxXlXvXgXkXyXcX}.aX4.b.b.b.G.V.H.u.]./.p.u.r.s.u.9.V.I.K.3.lXcX-X3XzXhXxXkXuX3X3X2XoX9.&.+.O.P 4 X     "
};
