/* XPM */
static char *cb2d9540c9a246b0ad309b22b633a110yustuerEZfY8MXGx[] = {
/* columns rows colors chars-per-pixel */
"64 64 254 2 ",
"   c #0D0C0C",
".  c #170C0B",
"X  c #101416",
"o  c #240D0E",
"O  c #2B1617",
"+  c #38191B",
"@  c #39231D",
"#  c #1B1B2D",
"$  c #1A1C31",
"%  c #221F2F",
"&  c #3C1E20",
"*  c #1D2339",
"=  c #28222A",
"-  c #3C2224",
";  c #392425",
":  c #282838",
">  c #312F3C",
",  c #36333C",
"<  c #44191C",
"1  c #4A271F",
"2  c #432629",
"3  c #472829",
"4  c #552D2D",
"5  c #493429",
"6  c #4B332D",
"7  c #52352E",
"8  c #59352E",
"9  c #54382F",
"0  c #4A2D32",
"q  c #4A3637",
"w  c #4C3534",
"e  c #4E3A3A",
"r  c #523533",
"t  c #553637",
"y  c #543933",
"u  c #5B3C34",
"i  c #543B3B",
"p  c #5A3D3C",
"a  c #602F2B",
"s  c #643B3A",
"d  c #504234",
"f  c #5B4437",
"g  c #5D403B",
"h  c #63433C",
"j  c #68463D",
"k  c #2B2F40",
"l  c #383548",
"z  c #493D43",
"x  c #543E42",
"c  c #5A3F40",
"v  c #6D3645",
"b  c #4A4348",
"n  c #534444",
"m  c #5B4343",
"M  c #584949",
"N  c #5C4B4B",
"B  c #544C52",
"V  c #584D54",
"C  c #5B545B",
"Z  c #5C5559",
"A  c #634444",
"S  c #694644",
"D  c #644A45",
"F  c #6B4A45",
"G  c #64464A",
"H  c #644A4B",
"J  c #6B4C4B",
"K  c #724B46",
"L  c #754648",
"P  c #734D4B",
"I  c #69544A",
"U  c #75524C",
"Y  c #694E51",
"T  c #7D4B53",
"R  c #625453",
"E  c #6C5353",
"W  c #695857",
"Q  c #635B5E",
"!  c #6B5C5B",
"~  c #7B5452",
"^  c #735B54",
"/  c #775856",
"(  c #735C5B",
")  c #79674F",
"_  c #6D605F",
"`  c #79635A",
"'  c #544E69",
"]  c #5D5763",
"[  c #5D5A62",
"{  c #625D63",
"}  c #6A5E67",
"|  c #615E69",
" . c #7A5E62",
".. c #656166",
"X. c #6C6263",
"o. c #65626C",
"O. c #6B656B",
"+. c #6E696D",
"@. c #726565",
"#. c #7D6564",
"$. c #746B6C",
"%. c #786968",
"&. c #7F736B",
"*. c #6C6775",
"=. c #726D72",
"-. c #796F73",
";. c #716D7C",
":. c #767177",
">. c #7C7375",
",. c #7C747B",
"<. c #7E787C",
"1. c #993135",
"2. c #8E3743",
"3. c #855758",
"4. c #845B5B",
"5. c #92505C",
"6. c #AA525B",
"7. c #82635D",
"8. c #875A65",
"9. c #975567",
"0. c #846866",
"q. c #836C6B",
"w. c #8B6B6C",
"e. c #87776B",
"r. c #916C71",
"t. c #817676",
"y. c #8A7475",
"u. c #81767B",
"i. c #847B7C",
"p. c #897D7E",
"a. c #95777A",
"s. c #AA6778",
"d. c #C56F7C",
"f. c #93847C",
"g. c #6E6982",
"h. c #726C82",
"j. c #736F88",
"k. c #767187",
"l. c #7C7583",
"z. c #7D7984",
"x. c #7A768B",
"c. c #7E7A8C",
"v. c #7C7A94",
"b. c #7C7B97",
"n. c #837C82",
"m. c #867884",
"M. c #897E81",
"N. c #837D8B",
"B. c #987B82",
"V. c #827D93",
"C. c #837E9A",
"Z. c #AD788A",
"A. c #868082",
"S. c #8B8283",
"D. c #88838D",
"F. c #8B848C",
"G. c #968688",
"H. c #939087",
"J. c #858293",
"K. c #8A8494",
"L. c #8D8997",
"P. c #84819B",
"I. c #8A859A",
"U. c #8C899D",
"Y. c #918C94",
"T. c #998D91",
"R. c #938D9C",
"E. c #969399",
"W. c #99939B",
"Q. c #A3888C",
"!. c #A5948C",
"~. c #B49588",
"^. c #A88D95",
"/. c #B7889B",
"(. c #AA9497",
"). c #B79898",
"_. c #BCA195",
"`. c #8785A3",
"'. c #8D8AA4",
"]. c #8B8CAB",
"[. c #928CA3",
"{. c #928EAC",
"}. c #988FAC",
"|. c #8F90A9",
" X c #9895A4",
".X c #9493AB",
"XX c #9A95AA",
"oX c #9C99AE",
"OX c #8E92B3",
"+X c #9394B3",
"@X c #9798B5",
"#X c #9C9BB4",
"$X c #9B9DBB",
"%X c #A89BA5",
"&X c #A798AF",
"*X c #B599A4",
"=X c #9DA2BC",
"-X c #A6A2AA",
";X c #B5A6AA",
":X c #A8A4B5",
">X c #A3A3BC",
",X c #B5A9B4",
"<X c #B4B3BA",
"1X c #C29B97",
"2X c #C797AA",
"3X c #C7A4B9",
"4X c #D0A5B3",
"5X c #9D9FC0",
"6X c #9EA4C1",
"7X c #A3A6C2",
"8X c #A3AAC4",
"9X c #A9A9C4",
"0X c #A6ADC9",
"qX c #ABAECB",
"wX c #B1ADC8",
"eX c #A7B1CB",
"rX c #ABB2CE",
"tX c #B9B7C7",
"yX c #ADB4D2",
"uX c #AEB9D5",
"iX c #B2B5D3",
"pX c #B2BAD6",
"aX c #BABCD7",
"sX c #B4BCDC",
"dX c #B5BFE0",
"fX c #CCB8CB",
"gX c #E5BACD",
"hX c #BBC2DC",
"jX c #B6C2E2",
"kX c #BBC5E4",
"lX c #BDCAEA",
"zX c #CBC5D2",
"xX c #C3C7D9",
"cX c #E5DDDC",
"vX c #C5CAE8",
"bX c #C4CCEB",
"nX c #C8D1ED",
"mX c #CDD3ED",
"MX c #C6D3F1",
"NX c #CAD5F3",
"BX c #CCDAF6",
"VX c #CEDDF9",
"CX c #D2DEF9",
"ZX c #D3E3E4",
"AX c #D4E4FD",
"SX c #D6E7FC",
"DX c #DAECFE",
"FX c #DEF3FE",
"GX c #DFF8FF",
"HX c #E7EAF3",
"JX c #E3F4FF",
"KX c #E5F9FF",
"LX c #E9F9FE",
"PX c #FEFEFE",
/* pixels */
"cXPXPXPXPXPXPXfX_.H.T.8.T i.F.E.S.f.n.&.@.S.F.A.A.S.A.A.f.A.i.i.i.i.t.t.n.A.A.A.A.n.i.i.<.<.<.&.$.S.i.<.A.A.A.A.A.<.<.A.<.A.S.S.",
"HXHXHX_.PXPXZXmX<XH.T.!.e.f.Y.A.Y.f.i.A.F.t.` 0.>.n.A.A.S.S.A.i.i.t.i.i.>.i.A.A.i.A.A.<.t.<.<.<.>.A.,.f.F.A.f.<.i.>.A.A.H.A.S.S.",
"cX_._._.PXPXZXhXf.v f.f.) E.Y.Y.Y.Y.F.M.y.p.^.4X1Xs.6.s./.s.Q.B.t.H.T.i.<.,.i.i.n.A.n.i.i.<.i.=.A.A.n.A.f.<.f.<.<.A.A.A.n.n.A.f.",
"_._.~.~.!.PXzXhX).e.v f.e.E.Y.E.Y.Y.F.Y.;X4X6.1.1.1.1.s.Z.s.s.Z.s./.B.,.>.f.i.t.i.i.S.M.<.>.f.<.F.A.A.A.<.<.<.<.f.A.A.A.A.f.z.:.",
"_.~.f.~.~.PXZX<X .G.v f.H.Y.W.E.T.R.T.3Xd.6.2.3X4X2X2X/.9.Z.Z.Z.Z.Z.8.r.).u.>.n.i.t.i.i.i.<.i.F.f.z.<.A.<.<.f.z.A.n.n.f.n.t.>.>.",
"_.~.f.PXPXPXxX:X-XF.-X XE.E.Y.Y.W.&XgXgX4XfX*X3XZ.r.a.p.q.t.0.E W L v 8.5.5.B.i.M.i.i.t.t.<.f.A.<.A.f.<.<.f.A.A.A.z.f.t.<.:.&.>.",
"~.PXPXPXPXJXxX-Xf.W.e.H.=XE.W.E.^.&XgXfX2Xs.5.0.m.q.q.#. .^ J F G A u u p 4 T r.B.F.p.i.t.i.p.i.A.f.n.<.n.A.A.A.A.n.i.<.<.&.<.&.",
"PXxXxXtXtXZXZX(.B.s H.) W. X-X-X,X3XZ.9.3.w.q.q.0. . .^ J A g g u u 9 y y t t a 3.y.i.i.i.i.i.i.i.A.<.<.f.z.<.<.<.<.t.<.t.<.<.<.",
"PXLXGXFXVX<XE.E.*XB.v %XW. X;X4X3X/.5.w.7.` ^ ^ I j j f f f f 9 9 9 9 9 6 9 r y y s m.i.i.i.i.i.i.i.p.S.S.i.i.A.A.<.<.i.>.:.i.>.",
"PXLXKXKXGXGXSXvX%X[.tX:X X%XgX2Xs.) ` ` / U F h h h f u 8 9 9 9 y 9 9 7 9 5 6 6 7 4 ~ i.i.S.f.u.i.S.S.n.f.S.S.i.A.f.i.S.f.n.<.f.",
"KXLXKXKXKXKXJXFXAXBXiXE.Y.:X4XZ.4.3.) U K j I @ O 7 u 9 9 9 9 9 9 7 7 o O @ 5 0 6 w t i.n.p.i.S.i.f.S.A.A.S.S.H.H.<.i.S.A.<.i.A.",
"LXLXKXGXKXKXFXSXCXCXbXxXiXfXZ.3.^ U K U j j h f o 9 y y 9 9 9 w 9 9 7 . ; 0 5 5 3 6 r m.f.S.S.t.S.A.S.S.S.A.Y.A.A.f.>.i.f.A.n.f.",
"KXKXGXKXGXFXSXSXVXMXnXlXaXfX3X^ U U K j j g f X   . 9 9 9 9 9 9 6 6 ;   X . 0 5 6 w t S.p.p.i.S.S.S.f.A.A.A.F.A.S.A.j f.A.f.V d ",
"KXKXGXGXFXFXDXAXBXBXMXlXvXxXaX#./ U U j j h 5 X     X d y 9 9 9 9 6 X     X 6 5 6 w S.p.f.S.S.S.S.S.F.S.f.F.f.A.S.H.>.>.i.<.5 e.",
"KXDXKXKXKXFXDXSXAXSXMXMXbXlXaXaXq.^ U I D j 3 Z X X b X y y r y 9 6 b   = . 6 w w M.n.S.n.S.p.M.f.S.S.i.A.n.A.A.F.A.f.=.&.&.7.f ",
"FXFXKXKXFXDXSXSXVXSXVXNXbXlXkXfXaXy./ U F I D h f g p d u D f A i 9 5 6 5 5 6 w &.>.S.S.S.M.p.S.S.S.S.i.f.n.<.f.<.<.<.>.&.) I e.",
"SXGXFXDXDXSXSXSXAXVXVXBXMXlXnXhXaXpXM./ U P F D j f f u + 7 9 7 6 1 w 9 6 6 9 _ y.M.y.&.S.S.M.G.S.S.i.i.i.u.u.,.:.:.:.<.< Y  .%.",
"VXSXAXSXDXSXAXAXVXBXBXNXMXNXvXvXhXhXiXtXq.U K F j j h f y < 3 < < w 6 6 6 6 H.G.G.S.f.p.y.q.@.i.i.i.i.i.u.u.,.>.:.>.:.>.G Y (  .",
"FXDXFXAXAXAXAXAXVXBXBXBXbXMXbXxXtXhXaXaXzX;X` F j j h s u u 9 9 7 7 5 5 6 H A.%.S.G.S.G.G.S.p.i.%.W >.>.:.:.-.-.>.>.>.Y q.< c Y ",
"FXDXDXDXSXDXDXSXAXVXBXbXlXMXMXxXf.Y.!.f.(.e.0./ 1 8 8 u u 8 9 9 7 3 2 6 m N h ! >.S.i.G.S.S.G.M.M.i.u.@.N @.=.=.=.=.+.@.H m 6 E ",
"LXDXDXDXDXAXDXAXCXVXBXVXbXMXbXvXvXtXw.3.G.a.0.0.#.` 5 h j f u s 8 I D f D N N I E ` _ &.M.m.-.M.m.t.i.t.-.-.-.$.Q _ @.@._ + ( ^ ",
"DXLXDXSXDXVXBXBXNXBXNXNXNXnXfX,X,X%X4.L !.e.e.` 0.` ( ^ j j 4 j U I I _ ^ W I N N 1 g Y R M.G.F.M.M.O.-.,.t.u.>.&.d j I M @ y I ",
"NXVXAXAXCXCXCXVXBXNXBXNXzX<X%X&X%Xa.4.G.3.K j ^ ^ ` ( ^ U ) u ` ^ ( ^ m t t w w p x t i i G G ! N.m.m.n.m.,.} I j I f I d _ #.! ",
"AXBXbXMXNXMXMXMXnXmXmX<X%X,X(.w.B.0.4.a.~ U U K K K K S D i t u s p g u i t r r t m m g c m c A H ( i.n.,.u.,.,.>.+.) ` I ` #.) ",
"KXLXDXAXCXCXNXVXCXzX,XQ.a.Q.0.3.T 3.a r.U ~ P U K j K j j v D A A h m p p p p p t c c c c c c G c G A } l.,.u.-.<.<.,.>.$.I D I ",
"FXDXJXDXJXJXJXfXtX-X^.r.4.w.3.L s 3.s 3.~ U ~ U L L S S S S h S A A g s p c c c x , G c Y c t c G m m N u.,.m.l.<.:.,.<.,.u.<.<.",
"NXBXNXMXMXvXzX&X;XQ.r.w.3.3.3.v 3 O 3.3.3.3.3.P L F S F S S S S S h A c c x x x Y.N.l E G c c G A A m W u.m.,.-.=.:.,.:.,.,.<.t.",
"AXAXCXAXCXCX:X(.G.r.4.L ~ s a 4 1 < O 3.K ~ T P P K L F S S S G S A m A c c x x R.N.l.K.l Y G c c Y E m.l.-.,.,.<.$.,.,.,.,.<.i.",
"LXDXCXCXCX,X*XG.r.4.L r.(.B.0. .a < + 3.L s F S S S S S S S F S A G G A G c p V V.V.R.V.[.l , E c t M m.,.u.,.=.,.:.,.-.,.<.<.n.",
"JXJXJXHXr.0.0.4.B.).2X;X).^.^.a.8.w.0.4.4.3.U s 3 0 p S G S G F A A m A c c m x } &Xm.N.N.#.p w i x R >.n.u.,.m.u.:.:.:.<.<.i.m.",
"CXCXDXHXHXq.^.*X/./.T.B.w.8.P v s a 8 r 4 4 4 4 3 + 4 c F J F G J D D D G 0 t t ] m.V.N.R.E m m c n N.n.m.l.m.-.-.-.>.u.u.i.m.i.",
"CXBXCXCX*X*X^.*X(.;XB.r.( c r r 3 4 + r 0 4 4 4 3 1 3 S K F F J A F G A S G N Y m.C.I.[.[.} x m n.V.m.l.l.,.,.,.l.m.u.i.m.i.i.t.",
"MX;X).Q.r.a.Z.B.w.T v x 0 2 2 2 & O . 0 0 t m s 8 s s K K P P J F P J H A H x M C.}.[.V.m.C.R.m.V.N.m.N.m.l.u.u.,.,.u.i.M.u.-.M.",
")./.Q.a.r.y. .Y p 4 0 2 2 2 2 & + + o & 2 2 ; p s h A s h A g h s G S A E x x x }.}.C.V.I.XXm.C.R.V.N.N.N.l.,.-.u.u.G.i.M.F.u.y.",
"a.a.w.( Y x t t 2 3 2 0 2 & & & & + o 0 z E G S S S S S S A A G D D H G e H e n C.C.C.&X&X'.:XK.l.N.K.V.l.K.N.m.F.G.u.Y.M.>.i.m.",
" ./ ! v 0 0 & 2 3 3 2 - & & & & & & o 0 x R S S S S S F S A S G G m S m m c c ] 9XwXwXwX}.C.C.}.XX[.R.[.R.D.Y.Y.m.F.Y.-.$.t.M.i.",
"a.#.G 2 & 2 - 2 3 & & & < & 2 3 2 0 0 0 A A S K F J F G J G G G G G S A G m m V 9X$X}.C.}.}.}.C.'.I.L.K.K.L.F.D.F.>.$.-.i.i.i.i.",
"E 2 ; & - - 2 2 2 2 2 3 2 0 0 m.&Xx.v p G J S S F H F P J J J G A A A m A m x m }.C.V.C.C.C.V.V.V.V.N.V.K.N.D.F.,.l.n.u.m.t.t.u.",
"= & ; & ; ; & 0 2 3 0 w x NXvXjXpX .Y A p Y A A S S G S S J J S A h v m m c c C C.C.C.C.C.C.V.V.V.V.N.m.m.N.n.n.n.n.z.n.,.,.-.m.",
"; ; & ; & 2 2 0 x MXbXMXvXvXmXbXvXvXvX .W J G A A h S G Y Y U ( ( W ( } E G c C.}.$X}.[.}.[.{.C.C.K.C.F.K.D.D.N.n.z.n.l.,.>.:.>.",
"& ; & ; 0 m.XX>XaXvXbXnXvXvXvXvXvXvXvXY v G m x i u i t ] iXA p s h u u t i C.5X5X@X@X}.{.{.].{.U.L.I.I.L.K.D.D.N.N.z.<.<.<.:.:.",
"; ; q >X$XoXR.R. X#XiXkXvXnXvXvXvXkXkXvXR c m i e t t w oXiXp s h p g u t z 7X7X7X@X+X+X{.OXC.{.`.I.I.I.K.P.N.D.z.n.<.<.l.<.<.:.",
"z yXsXjXsXyX9XXXR.Y.R.XX9XiXaXsXaXiXaXiXU M x i q i e t >X}.u.t i y t t t x 0X6X5X5X7X5XOX`.].C.P.V.V.N.x.z.l.<.l.l.l.l.<.n.;.,.",
"yXkXsXqXiXiXyXrX9XoXY.L.R.}.&X>XqXiXiXiXwXN m i i t e t iXqX>Xt u i y y t z 6X5X5X5X5X5X5XOX5Xb.V.V.v.P.U.I.I.I.I.K.D.J.c.l.z.z.",
"rXrXrXiXiXiXyX7X9XqX9X>XR.L.L.Y.[.XX>XwXwXE m i t t e i iXqX0Xs u i e w w e $X5X5X+X5X5X].OXOXOX+X+X+X{.].'.U.I.I.J.J.V.N.c.c.A.",
"0XyXyXiX0X>X9X=X7X7X7X7X9X:XXXL.Y.L.Y.R..XoXR m i e w t V @X5Xc t e y w w z ].OX5XOXOXOXOXOX5X].].{.].{.`.'.P.P.P.U.c.D.c.A.N.N.",
"jXdXyX7XrX9XqX7X>X>X>X9XrXqXwX9X>XXXF.L.K.Y.#.N c t q t x C.`.c i y q q w *.b.b.b.C.].OX].OX].`.'.].].].OXP.V.P.P.h.c.c.c.z.x.z.",
"rX7X0X8X=X$X[.eXyXiXyXiX9XoX#X>X>X#X@XXXXXXXM.Y c i q 0 > g.M p f q q q B j.j.g.j.b.b.b.C.`.].].P.P.`.P.P.P.V.x.,.:.x.k.k.k.x.k.",
"$X6X$X#X6XyXqX7X0X9X@XoXXXoXXXR.K.R. X=X-X=X#XE D d e q % l : 0 5 w w e : j.h.x.j.j.g.;.j.v.v.P.b.b.b.P.b.x.x.k.*.O.O.+.+.*.h.h.",
"yXMXbXMXlXlXjXsXyXrX0X6X$XoXR.K.F.F.F.F.Y.W.oX X> > : : % g.' # $ % # : ] ] ] ] | o.;.*.*.*.h.k.b.b.b.b.b.x.j.g.;.+.O...o.....o.",
"6XoX6XdXlXjXlXlXlXlXkXjXjXdXpXiX>XoXE.F.;XQ.a.8.V % b # % z b * * > # : ' C ] ] | [ [ | | o.o.;.g.j.x.x.x.k.k.h.;.+.*.O.O.O.O.o.",
"U.=X7X7XeXeXuXuXjXjXjXsXdXpXyXyXeXwX>X:X(.Q.Q.G.y.S i t t t B : : l : : m V z B B B C B B C Z [ ] [ o.*.;.h.j.k.h.;.*.{ [ | o...",
"8XyXuX8X=X=X=X=X6X0XyXuXsXpXsXiXrX>XtX;X!.a.q.y.q./ A A i D H M m i q w w e C B C C C C Z { ....*.o.o.[ [ | o.*.*.o.o.o...{ { [ ",
"jXhX=X{.L.J.J.J.U.U.U.{.$X#X7X7X>X.X,X-Xa.y.q.%. .J A j 6 F A G M i i q x d e B B C { [ Q Q Z Z Z ] [ | | | | [ | [ | | ..{ | [ ",
"6X.XK.P.D.J.U.L.P.I.I.U.R.'.+X>X8X9XtXW.a.0._ d : b : = X I J F m p i q e i e b b b M B Z Z Z Q [ { ....o.o.o.o.| | [ C [ [ { [ ",
"K.J.I.P.U.].=X@X=X=X>X6X8X8X#X.X.XU.E.E.:.: , * : $ $ : = J E J D m u q e e e i b b M C Z Z Q Q C ..C ....o.o.o.o.| ..[ [ C Z [ ",
"J.U.E.@XeXeX=XeX8X@X@XoX|.|.U.J.A.L.=XH.=.+._ b B , d b , I ^ R b * > > : , : d d B Z Z Q Z C Z Z [ Z Z [ [ [ { | | [ [ [ [ Z Z ",
"=X=XeXeX=X=X=X=X8X8X=X=X=X=X=XeXhXeX=XE.Q C R _ _ B M f N _ N l B k l , % : $ d M B ....X.! Q Q Q Q Q [ Z [ [ [ [ [ [ [ [ [ C C ",
"uXjXjXjXjXjXjXjXkXjXjXjXjXhXjXjXuX8X=X#X+.Q _ _ _ _ R _ ^ R _ b l : b B , M b n d Z X.+.X.$.@.X...Q Q { Q { { { [ [ [ [ [ C [ [ ",
"lXlXkXkXlXlXjXjXjXkXjXjXjXjXjX8X8X8X=X|.z.+.@.+._ _ _ _ _ _ _ _ _ Z Z M M M M R I Q +.+.$.$.$.+.+.+.+.....{ { { [ [ [ [ [ [ [ [ ",
"uXeXjXuXeXeXjXjXeXjXeXeX=XeX8X8XeX=X=X#Xc.z.:.=.%._ _ _ _ %.%._ _ M R I R R R ! ..+.X.&.+.&.+.+.X.X.......[ [ { [ { [ [ [ [ [ [ ",
"=X6X8XeX8XjXeXeXeXeXeX=X=X8X=X=X=XeX=X=X`.N.z.:.$.+.@.%.X.+.%.$.@.Z N ! X.R R _ ) +.+.$.+.+.+.+.+.......{ { ..[ { { [ ..[ [ [ [ ",
"=X=X8X8X=X=XeXeXjXeXhXeXeXeXjX=X=X=X=X.XU.b.z.z.:.=.$.%.+.$.$.:.e.! Q Q _ X._ @.+.+.=.=.=.=.=.=.=.=.$.+.+.+...+.........{ { ..| ",
"jXeXjXjXhXjXhXhX=X=XeXeXeXeXeX8X=X=X=XOXP.z.z.z.:.:.&.$.&.:.&.&.:.+.O._ X.$.$.=.=.=.=.=.=.=.=.=.=.=.=.=.+.+.o.o.+.+.+.o...{ [ [ "
};
