/* XPM */
static char *b643e75ddc7844c9d5b905aa0eb085f6t7yZe4KkeN9LevAO[] = {
/* columns rows colors chars-per-pixel */
"64 64 175 2 ",
"   c #1F2F37",
".  c #1F2F38",
"X  c #202F39",
"o  c #233437",
"O  c #21313C",
"+  c #2A3B3A",
"@  c #2E4136",
"#  c #36483C",
"$  c #34513F",
"%  c #49583F",
"&  c #565B3D",
"*  c #233144",
"=  c #2A3445",
"-  c #26334D",
";  c #2A3655",
":  c #253E59",
">  c #383E5C",
",  c #2F3B60",
"<  c #323C62",
"1  c #3D3E7A",
"2  c #483D49",
"3  c #5E3E51",
"4  c #3B4746",
"5  c #365541",
"6  c #395542",
"7  c #3B5B45",
"8  c #3E5252",
"9  c #394661",
"0  c #26506D",
"q  c #1F687F",
"w  c #4F5B45",
"e  c #454A53",
"r  c #58405F",
"t  c #674557",
"y  c #496147",
"u  c #42634A",
"i  c #5D6343",
"p  c #546A4C",
"a  c #4D6B50",
"s  c #4B7155",
"d  c #68714E",
"f  c #626353",
"g  c #687956",
"h  c #4C5C67",
"j  c #585E68",
"k  c #495277",
"l  c #774B64",
"z  c #775E74",
"x  c #496563",
"c  c #4D636E",
"v  c #4D6671",
"b  c #516A75",
"n  c #5A6A76",
"m  c #546E7B",
"M  c #57717E",
"N  c #58727F",
"B  c #62606F",
"V  c #646170",
"C  c #6A6575",
"Z  c #6C6779",
"A  c #6E687A",
"S  c #726B7E",
"D  c #6E727C",
"F  c #747473",
"G  c #874D64",
"H  c #9B506B",
"J  c #A85470",
"K  c #B45674",
"L  c #BC567B",
"P  c #5C866A",
"I  c #608F6B",
"U  c #62916D",
"Y  c #6E9F78",
"T  c #799B74",
"R  c #968D57",
"E  c #B6A058",
"W  c #8F896F",
"Q  c #968D60",
"!  c #8F9061",
"~  c #BEB173",
"^  c #C3AA59",
"/  c #C7B25E",
"(  c #D2C66B",
")  c #DBD679",
"_  c #413F81",
"`  c #1F6C83",
"'  c #206E85",
"]  c #22748B",
"[  c #267C94",
"{  c #4C4980",
"}  c #5C7682",
"|  c #756D81",
" . c #796F84",
".. c #607A86",
"X. c #647E8A",
"o. c #777182",
"O. c #7B7385",
"+. c #7F7788",
"@. c #817B8B",
"#. c #C45681",
"$. c #2A839B",
"%. c #2D89A1",
"&. c #3089A0",
"*. c #66818C",
"=. c #69848D",
"-. c #6B8591",
";. c #6F8A95",
":. c #708C96",
">. c #78939E",
",. c #7AAD82",
"<. c #7EB084",
"1. c #7C9AA3",
"2. c #828580",
"3. c #85818E",
"4. c #868490",
"5. c #8C8C94",
"6. c #8F8E98",
"7. c #889099",
"8. c #929395",
"9. c #95959D",
"0. c #8AB689",
"q. c #92BB8C",
"w. c #A7A98E",
"e. c #899DA4",
"r. c #9D9AA4",
"t. c #8CA3AC",
"y. c #9FB2BA",
"u. c #A8A6AD",
"i. c #A7ADB3",
"p. c #AEB1B7",
"a. c #B6B8BB",
"s. c #C1BAAF",
"d. c #9DC191",
"f. c #A3C492",
"g. c #AAC696",
"h. c #ACC798",
"j. c #B4CA9E",
"k. c #BBCCA2",
"l. c #C1C4B7",
"z. c #A0BDC6",
"x. c #BDBCC1",
"c. c #C2BDC2",
"v. c #A9C3CA",
"b. c #AFC7D0",
"n. c #ADCBD3",
"m. c #B1CED7",
"M. c #B2CFD8",
"N. c #B7D0D7",
"B. c #B4D1DA",
"V. c #BAD4DD",
"C. c #C9C5C6",
"Z. c #CBC4CA",
"A. c #CFC8CE",
"S. c #D0CACD",
"D. c #C8D6C0",
"F. c #CFCDD2",
"G. c #D3CCD2",
"H. c #CCD7DC",
"J. c #D5D0D5",
"K. c #D8D1D6",
"L. c #D3D5D8",
"P. c #DDD6DA",
"I. c #DFD8DC",
"U. c #E0DBDE",
"Y. c #CADCE1",
"T. c #D5E1E5",
"R. c #D9E3E7",
"E. c #DFE6EA",
"W. c #E6E6E6",
"Q. c #E1E7EB",
"!. c #E7E7E9",
"~. c #ECECEC",
"^. c #EFF0F1",
"/. c #F5F5F5",
"(. c #FEFEFE",
/* pixels */
"(.W.(.W.(.W.(.W.(.W.(.W.~.(.W.(.W.(.W.(.W.(.W.(.W.(.W.(.W.(.W.(.W.(.W.(./.W.(.W.(.W.(.W.(.W.(.W.(.W.(.W.(.W.(.W.(.W.(.W.~.(.W.(.",
"W.(.W.(.W.(.W.(.W.(.W.(.(.W.(.W.(.W.(.W.(.W.(.W.(.W.(.W.(.W.(.W.(.W.(.!.~.(.W.(.W.(.W.(.W.(.W.(.W.(.W.(.W.(.W.(.W.(.W.(.(.W.(.W.",
"W.(.W.(.W.(.W.(.W.(.W.(.(.W.(.W.(.W.(.W.(.W.(.W.(.W.(.W.(.k _ { (.W.(.~.~.(.W.(.W.(.W.(.W.(.W.(.W.(.W.(.W.(.W.(.W.(.W.(.(.W.(.W.",
"(.W.(.W.(.W.(.W.(.W.(.~.~.(.W.(.W.(.W.(.W.(.W.(.W.(.W.(.L _ _ _ _ (.W.(.(.W.(.W.(.W.(.W.(.W.(.W.(.W.(.W.(.W.(.W.(.W.(.~.~.(.W.(.",
"W.(.W.(.W.(.W.(.W.(.W././.W.(.W.(.W.(.W.(.W.(.W.(.W.(.- K _ 1 1 < - (.!.~.(.W.(.W.(.W.(.W.(.W.(.W.(.W.(.W.(.W.(.W.(.W././.W.(.W.",
"(.W.(.W.(.W.(.W.(.W.(.!.~.(.W.(.W.(.W.(.W.(.W.(.W.(.W.{ K G 1 , ; < 2 (.(.W.(.W.(.W.(.W.(.W.(.W.(.W.(.W.(.W.(.W.(.W.(.!.~.(.W.(.",
"W.(.W.(.W.(.W.(.W.(.W.(.(.W.(.W.(.W.(.W.(.W.(.W.(.W.(.J l , z ; - X = !.~.(.W.(.W.(.W.(.W.(.W.(.W.(.W.(.W.(.W.(.W.(.W.(.(.W.(.W.",
"W.(.W.(.W.(.W.(.W.(.W./.(.W.(.W.(.W.(.W.(.W.(.W.(.W.(.H G K #.; ; 2 l ~.~.(.W.(.W.(.W.(.W.(.W.(.W.(.W.(.W.(.W.(.W.(.W./.(.W.(.W.",
"(.W.(.W.(.W.(.W.(.W.(.~.~.(.W.(.W.(.W.(.W.(.W.(.W.(.W.H K K K O 3 K J 8 /.W.(.W.(.W.(.W.(.W.(.W.(.W.(.W.(.W.(.W.(.W.(.~.~.(.W.(.",
"W.(.W.(.W.(.W.(.W.(.W.(.(.W.(.W.(.W.(.W.(.W.(.W.(.W.(.2 K G.5.O.+.K H !.~.(.W.(.W.(.W.(.W.(.W.(.W.(.W.(.W.(.W.(.W.(.W.(.(.W.(.W.",
"(.W.(.W.(.W.(.W.(.W.(.~.~.(.W.(.W.(.W.(.W.(.W.(.W.(.W.t * 8.+. .u.c.j (.(.W.(.W.(.W.(.W.(.W.(.W.(.W.(.W.(.W.(.W.(.W.(.~.~.(.W.(.",
"(.~./.~.(.~.(.~.(.~./.~.~.(.~./.~./.~.(.~.(.~./.~.(.X e Z.b.x.G.@.A.4.(./.~.(.~./.~.(.~./.~.(.~.(.~./.~.(.~.(.~.(.~./.~.~.(.~./.",
"W.(.W.(.W.(.W.(.W.(.W.(.(.W.(.W.(.W.(.W.(.W.(.W.(.    + 3.C.K.F.K.c.* X w (.W.(.W.(.W.(.W.(.W.(.W.(.W.(.W.(.W.(.W.(.W.(.(.W.(.W.",
"(.W.(.W.(.W.(.W.(.W.(.~.!.(.W.(.W.(.W.(.W.(.W.(.      o  .[ K.Z K.6 X X X & B W.(.W.(.W.(.W.(.W.(.W.(.W.(.W.(.W.(.W.(.~.!.(.W.(.",
"W.(.W.(.W.(.W.(.W.(.W./.(.W.(.W.(.W.(.W.(.W.(.& & X   o + G.K.S.K.U * X X E @.(.W.(.W.(.W.(.W.(.W.(.W.(.W.(.W.(.W.(.W./.(.W.(.W.",
"(.W.(.W.(.W.(.W.(.W.(.~.~.(.W.(.W.(.W.(.W.(.e Z j &   7 I s.K.t i.,.*   ' ^ c.^.(.W.(.W.(.W.(.W.(.W.(.W.(.W.(.W.(.W.(.~.~.(.W.(.",
"(.W.(.W.(.W.(.W.(.W.(.~.~.(.W.(.W.(.W.(.W.(.V Z B > i ' U Y U.7.5.5.D ' ' R c.Z (.W.(.W.(.W.(.W.(.W.(.W.(.W.(.W.(.W.(.W.~.(.W.(.",
"W.(.W.(.W.(.W.(.W.(.W.(./.W.(.W.(.W.(.W.(.r.Z Z | Z ^ q ` 4 ,.D O.S O.S q / A.S W.(.W.(.W.(.W.(.W.(.W.(.W.(.W.(.W.(.W.(.(.W.(.W.",
"(.W.(.W.(.W.(.W.(.W.(.!.~.(.W.(.W.(.W.(.W.c.c.Z.Z.A./ ` ` 0 ; C 3.A n S @.f A.5 (.W.(.W.(.W.(.W.(.W.(.W.(.W.(.W.(.W.(.~.~.(.W.(.",
"W.(.W.(.W.(.W.(.W.(.W.(.(.W.(.W.(.W.(.W.(.r.c.A.A.K.^ ` ` ` > < O.5.c.o.O.@.6.u W.(.W.(.W.(.W.(.W.(.W.(.W.(.W.(.W.(.W.(.(.W.(.W.",
"/.~.(.~.(.~./.~./.~.(.~.~./.~.(.~.(.~./.~.(.A.A.G.u.& ' ` ` ` 9 9 ' C S |  . .P (.~./.~.(.~./.~.(.~.(.~./.~.(.~.(.~./.^.~./.~.(.",
"(.W.(.W.(.W.(.W.(.W.(.~.~.(.W.(.W.(.!.(.W.5 4 G.A.| # 0 L L , ] ] [ +.@.w.I.4 5 (.W.(.W.(.W.(.W.(.W.(.W.(.W.(.W.(.W.(.~.~.(.W.(.",
"W.(.W.(.W.(.W.(.W.(.W.(.(.W.(.W.(.W.(.W.(.$ 6 5 5 5 . : #.#.q ] [ [ #.$.$ p 6 G.W.(.W.(.W.(.W.(.W.(.W.(.W.(.W.(.W.(.W./.(.W.(.W.",
"(.W.(.W.(.W.(.W.(.W.(.~.~.(.W.(.W.(.W.(.!.u 6 5 5 5 . ` #.L [ [ [ %.#.(.D w.i G.(.W.(.W.(.W.(.W.(.W.(.W.(.W.(.W.(.W.(.~.!.(.W.(.",
"W.(.W.(.W.(.W.(.W.(.W.(./.W.(.W.(.W.(.W.(.P 7 Q q.4 ' ] r #.$.$.$.$.' ~.S K.K.S W.(.W.(.W.(.W.(.W.(.W.(.W.(.W.(.W.(.W./.(.W.(.W.",
"W.(.W.(.W.(.W.(.W.(.W.(.(.W.(.W.(.W.(.W.(.9.W q.0.6.] ] [ ] %.%.%.&.^.~.O.K.K.i.W.(.W.(.W.(.W.(.W.(.W.(.W.(.W.(.W.(.W.(./.W.(.W.",
"(.W.(.W.(.W.(.W.(.W.(.~.~.(.W.(.W.(.W.(.W.A o.K.J.(.+ [ [ %.&.>.5 p.!.(. .I.K.~.(.W.(.W.(.W.(.W.(.W.(.W.(.W.(.W.(.W.(.~.~.(.W.(.",
"W.(.W.(.W.(.W.(.W.(.W./.(.W.(.W.(.W.(.W.(.r.P.P.i.W.j @ $ u U d.5 !.(.~.K.I.P.C W.(.W.(.W.(.W.(.W.(.W.(.W.(.W.(.W.(.W.(.(.W.(.W.",
"(.W.(.W.(.W.(.W.(.W.(.W.~.(.W.(.W.(.W.(.W.8.P.G.W.(.+ o u 6 s g.s (.W.(.I.U.I.w.(.W.(.W.(.W.(.W.(.W.(.W.(.W.(.W.(.W.(.~.~.(.W.(.",
"W.(.W.(.W.(.W.(.W.(.W.(.(.W.(.W.(.W.(.W.(.u.K.@.3.5.@ @ U Y h.h.,.$ =.~.I.U.U.(.W.(.W.(.W.(.W.(.W.(.W.(.W.(.W.(.W.(.W./.(.W.(.W.",
"W.(.W.(.W.(.W.(.W.(.W.(./.W.(.W.(.W.(.W.(.x. . . .@.@.@.o ,.f.k.,.m c ~.~.~.U.(.W.(.W.(.W.(.W.(.W.(.W.(.W.(.W.(.W.(.W.(.(.W.(.W.",
"(.W.(.W.(.W.(.W.(.W.(.~.~.(.W.(.W.(.W.(.W.o. . .S S S  . .O.6 7 6 m t./.(.~.(.!.(.W.(.W.(.W.(.W.(.W.(.W.(.W.(.W.(.W.(.~.W.(.W.(.",
"W.(.W.(.W.(.W.(.W.(.W.(.(.W.(.W.(.W.(.W.(.C.W.K.K.1.1.1.1.L.U 7 3.v.n.~.~.(.W.(.W.(.W.(.W.(.W.(.W.(.W.(.W.(.W.(.W.(.W.(./.W.(.W.",
"(.W.(.W.(.W.(.W.(.W.(.~.~.(.W.(.W.(.W.(.W.(.W.W.W.:.:.:.:.>.f.f.@.4.b.k (.W.(.W.(.W.(.W.(.W.(.W.(.W.(.W.(.W.(.W.(.W.(.~.~.(.W.(.",
"(.W.(.W.(.W.(.W.(.W.(.~.~.(.W.(.W.(.W.(.W.(.W.(.:.*.-.*.*.-.v.m.@.A ;.:.(.W.(.W.(.W.(.W.(.W.(.W.(.W.(.W.(.W.(.W.(.W.(.~.~.(.W.(.",
"W.(.W.(.W.(.W.(.W.(.W./.(.W.(.W.(.W.(.W.(.W.(.W.} N } N N N x n.@.S e.:.:.(.W.(.W.(.W.(.W.(.W.(.W.(.W.(.W.(.W.(.W.(.W.(.(.W.(.W.",
"(.W.(.W.(.W.(.W.(.W.(.~.~.(.W.(.W.(.W.(.W.(.W.b 8 B.v v v v b *.+.| ;.*.*.N (.W.(.W.(.W.(.W.(.W.(.W.(.W.(.W.(.W.(.W.(.~.~.(.W.(.",
"W.(.W.(.W.(.W.(.W.(.W.(.(.W.(.W.(.W.(.W.(.W.(.c 7.n.B.c c v M.n.U.I.X.X.....W.(.W.(.W.(.W.(.W.(.W.(.W.(.W.(.W.(.W.(.W.(./.W.(.W.",
"(.W.(.W.(.W.(.W.(.W.(.~.~.(.W.(.W.(.W.(.W.(.W.c n.B.n.t.z.M.R.m.K.W.X.N } } X.W.(.W.(.W.(.W.(.W.(.W.(.W.(.W.(.W.(.W.(.~.~.(.W.(.",
"(.W.(.W.(.W.(.W.(.W.(.!.~.(.W.(.W.(.W.(.W.(.W.(.m.B.m.N.N.V.R.B.O.K.N M N N N W.(.W.(.W.(.W.(.W.(.W.(.W.(.W.(.W.(.W.(.~.~.(.W.(.",
"W.(.W.(.W.(.W.(.W.(.W.(.(.W.(.W.(.W.(.W.(.W.(.W.8.B.Y.R.E.R.B.S.@.b.N m M m } } Q.(.W.(.W.(.W.(.W.(.W.(.W.(.W.(.W.(.W./.(.W.(.W.",
"(.W.(.W.(.W.(.W.(.W.(.~.W.(.W.(.W.(.W.(.W.(.W.(.m.m.B.E.E.-.W.>.~.I.N.N m } m m (.W.(.W.(.W.(.W.(.W.(.W.(.W.(.W.(.W.(.~.~.(.W.(.",
"W.(.W.(.W.(.W.(.W.(.W.(.(.W.(.W.(.W.(.W.(.W.(.W.m.m.m.V.V.V.(.!.B.N.N.B.M.b b M W.(.W.(.W.(.W.(.W.(.W.(.W.(.W.(.W.(.W.(.(.!.(.W.",
"~.(.~./.~./.~.(.~./.~././.~./.~.(.~./.~./.~.(.~./.Y.y.V.p.F./.^./.V.n.B.M.m.v v 9./.~.(.~./.~.(.~.(.~./.~.(.~.(.~.(.~././.~./.~.",
"(.W.(.W.(.W.(.W.(.W.(.~.~.(.W.(.W.(.W.(.W.(.W.(.W.^.P R.R.(.W.(.!.R.B.B.B.B.} v v W.(.W.(.W.(.W.(.W.(.W.(.W.(.W.(.W.(.!.~.(.W.(.",
"W.(.W.(.W.(.W.(.W.(.W.(.(.W.(.W.(.W.(.W.(.W.(.W.(.W.U 0.j.W.(.W.(.!.B.N.B.N.M.v c (.W.(.W.(.W.(.W.(.W.(.W.(.W.(.W.(.W.(./.!.(.W.",
"(.W.(.W.(.W.(.W.(.W.(.~.~.(.W.(.W.(.W.(.W.(.W.(.!.(.P 0.d.(.W.(.W.(.R.V.B.B.B.b c W.(.!.(.W.(.W.(.W.(.W.(.W.(.W.(.W.(.W.~.(.W.(.",
"W.(.W.(.W.(.W.(.W.(.W./.(.W.(.W.(.W.(.W.(.W.(.W.(.!.s q.q.W.(.W.(.W.!.R.V.B.B.B.c = W.(.W.(.W.(.W.(.W.(.W.(.W.(.W.(.W.(.(.W.(.W.",
"W.(.W.(.W.(.W.(.W.(.W.(./.W.(.W.(.W.(.W.(.W.(.W.(.W.F.q.P W.(.W.(.W.(.~.B.V.B.M.b v W.(.W.(.W.(.W.(.W.(.W.(.W.(.W.(.W.(./.W.(.W.",
"(.W.(.W.(.W.(.W.(.W.(.~.~.(.W.(.W.(.W.(.W.(.W.(.W.(.R <.a (.W.(.W.(.W.B.V.B.B.V.B.m.(.W.(.W.(.W.(.W.(.W.(.W.(.W.(.W.(.~.~.(.W.(.",
"W.(.W.(.W.(.W.(.W.(.W.(.(.W.(.W.(.W.(.W.(.W.(.W.(.W.) g.( W.(.!.(.W.(.B.=.B.V.N.N.B.W.(.W.(.W.(.W.(.W.(.W.(.W.(.W.(.W.(.(.W.(.W.",
"(.W.(.W.(.W.(.W.(.W.(.~.~.(.W.(.W.(.W.(.W.(.W.(.W.(.+ ) H.(.W.(.W.(.D.H.V.V.V.V.N.B.(.W.(.W.(.W.(.W.(.W.(.W.(.W.(.W.(.~.~.(.W.(.",
"~.(.~.(.~./.~.(.~./.~././.~./.~.(.~./.~./.~.(.~./.~.% H.8.~./.~.(.~./.i.E.E.E.T.T.h ~./.~.(.~./.~.(.~.(.~./.~.(.~./.~././.~./.~.",
"W.(.W.(.W.(.W.(.W.(.W.(.(.W.(.W.(.W.(.W.(.W.(.W.(.!.# F.& !.(.W.(.W.a.Q.E.W.Q.2.F (.W.(.W.(.W.(.W.(.W.(.W.(.W.(.W.(.W.(.(.W.(.W.",
"(.W.(.W.(.W.(.W.(.W.(.W.~.(.W.(.W.(.W.(.W.(.W.(.!.(.L.% @ (.W.(.W.(.q.E.E.a.e.W.(.W.(.W.(.W.(.W.(.W.(.W.(.W.(.W.(.W.(.W.~.(.W.(.",
"W.(.W.(.W.(.W.(.W.(.W.(.(.W.(.W.(.W.(.W.(.W.(.W.(.W.(.+ y W.(.W.(.!.d.q.! i.+.(.W.(.W.(.W.(.W.(.W.(.W.(.W.(.W.(.W.(.W.(.(.W.(.W.",
"(.W.(.W.(.W.(.W.(.W.(.~.~.(.W.(.W.(.W.(.W.(.W.(.W.(.~.& w (.W.(.W.(.q.q.P W.(.W.(.W.(.W.(.W.(.W.(.W.(.W.(.W.(.W.(.W.(.~.~.(.W.(.",
"(.W.(.W.(.W.(.W.(.W.(.~.~.(.W.(.W.(.W.(.W.(.W.(.W.(.G.& i (.W.(.W.q.q.q./.W.(.W.(.W.(.W.(.W.(.W.(.W.(.W.(.W.(.W.(.W.(.~.~.(.W.(.",
"W.(.W.(.W.(.W.(.W.(.W.(.(.W.(.W.(.W.(.W.(.W.(.W.(.W.(.i i W.(.W.(.f.0.g ~.(.W.(.W.(.W.(.W.(.W.(.W.(.W.(.W.(.W.(.W.(.W.(.(.W.(.W.",
"(.W.(.W.(.W.(.W.(.W.(.~.~.(.W.(.W.(.W.(.W.(.W.(.W.(.W.d d (.W.(.W.f.q./.(.W.(.W.(.W.(.W.(.W.(.W.(.W.(.W.(.W.(.W.(.W.(.~.~.(.W.(.",
"W.(.W.(.W.(.W.(.W.(.W.(.(.W.(.W.(.W.(.W.(.W.(.W.(.W.(.W.~ W.(.W.T f.d ~.~.(.W.(.W.(.W.(.W.(.W.(.W.(.W.(.W.(.W.(.W.(.W.(.(.W.(.W.",
"(.W.(.W.(.W.(.W.(.W.(.~.W.(.W.(.W.(.W.(.W.(.W.(.W.(.W.(.W.(.W.(.f.f.W././.W.(.W.(.W.(.W.(.W.(.W.(.W.(.W.(.W.(.W.(.W.(.~.W.(.W.(.",
"(.W.(.W.(.W.(.W.(.W.(.W.~.(.W.(.W.(.W.(.W.(.W.(.W.(.W.(.W.(.!.( f./.W.(.(.W.(.W.(.W.(.W.(.W.(.W.(.W.(.W.(.W.(.W.(.W.(.W.~.(.W.(.",
"W.(.W.(.W.(.W.(.W.(.W.(.(.W.(.W.(.W.(.W.(.W.(.W.(.W.(.W.(.l.d ) f.W.(.~.~.(.W.(.W.(.W.(.W.(.W.(.W.(.W.(.W.(.W.(.W.(.W.(.(.W.(.W."
};
