/* XPM */
static char *_94275a2355949f8ac39890cd01dc623XlH1QARAbJkWKl1X[] = {
/* columns rows colors chars-per-pixel */
"64 64 251 2 ",
"   c #070204",
".  c #0D0304",
"X  c #0D0509",
"o  c #0D0A0B",
"O  c #140404",
"+  c #1A0405",
"@  c #140905",
"#  c #1C0A06",
"$  c #13060A",
"%  c #1A0609",
"&  c #140A0C",
"*  c #1C0A0C",
"=  c #1B110B",
"-  c #090918",
";  c #1B0713",
":  c #140C11",
">  c #1C0C12",
",  c #0F111E",
"<  c #1C1213",
"1  c #181215",
"2  c #230504",
"3  c #290504",
"4  c #240A06",
"5  c #2B0B06",
"6  c #24050B",
"7  c #2B060C",
"8  c #230B0C",
"9  c #2C0B0C",
"0  c #380D05",
"q  c #320C0D",
"w  c #26130B",
"e  c #2D120E",
"r  c #32130E",
"t  c #38170C",
"y  c #240C12",
"u  c #270814",
"i  c #2C0C13",
"p  c #2C0D1A",
"a  c #330D14",
"s  c #380F17",
"d  c #330E19",
"f  c #231214",
"g  c #2C1214",
"h  c #23151B",
"j  c #2C131A",
"k  c #25191A",
"l  c #2C1A1C",
"z  c #331314",
"x  c #3A1415",
"c  c #351914",
"v  c #3A1A15",
"b  c #34131B",
"n  c #3A141B",
"m  c #351A1C",
"M  c #3A1B1C",
"N  c #2E2310",
"B  c #3D211B",
"V  c #0B0C22",
"C  c #0D0C29",
"Z  c #190D28",
"A  c #0E1124",
"S  c #131325",
"D  c #14142B",
"F  c #191729",
"G  c #16192B",
"H  c #1A1B2D",
"J  c #1C1C33",
"K  c #181834",
"L  c #291A27",
"P  c #341523",
"I  c #321C22",
"U  c #3B1B23",
"Y  c #341528",
"T  c #361828",
"R  c #3C1D2B",
"E  c #241B35",
"W  c #1D2233",
"Q  c #1E243B",
"!  c #2A232A",
"~  c #3E2224",
"^  c #392529",
"/  c #232335",
"(  c #2B2737",
")  c #23233A",
"_  c #26293A",
"`  c #2A2B3C",
"'  c #392636",
"]  c #363237",
"[  c #48190C",
"{  c #411A17",
"}  c #472517",
"|  c #4F2711",
" . c #6A3613",
".. c #421C25",
"X. c #462728",
"o. c #513526",
"O. c #432334",
"+. c #492937",
"@. c #47383B",
"#. c #533538",
"$. c #623F2F",
"%. c #5C4123",
"&. c #6F4C30",
"*. c #282842",
"=. c #352941",
"-. c #2C3144",
";. c #363548",
":. c #3C3B55",
">. c #4D3754",
",. c #583A68",
"<. c #494348",
"1. c #44495C",
"2. c #6C5449",
"3. c #6C6356",
"4. c #5B4768",
"5. c #534D69",
"6. c #67566D",
"7. c #684777",
"8. c #8C502F",
"9. c #965B3A",
"0. c #A45B2D",
"q. c #95663B",
"w. c #AA6537",
"e. c #B56C3A",
"r. c #C57A38",
"t. c #8A5C44",
"y. c #8A6B53",
"u. c #AB724E",
"i. c #BA7648",
"p. c #8F736C",
"a. c #C67A47",
"s. c #C27F55",
"d. c #D98B3A",
"f. c #E6973A",
"g. c #EEA53D",
"h. c #BC8154",
"j. c #B88B6F",
"k. c #BAA76D",
"l. c #CD854B",
"z. c #D78846",
"x. c #DB8C4A",
"c. c #DE9549",
"v. c #C78557",
"b. c #D58B53",
"n. c #D98B55",
"m. c #CB935D",
"M. c #DC9354",
"N. c #DC945B",
"B. c #DC975A",
"V. c #E68845",
"C. c #E48D45",
"Z. c #E38D4C",
"A. c #E59644",
"S. c #EC9C45",
"D. c #E4944C",
"F. c #E9954C",
"G. c #E59A4C",
"H. c #EB9D4C",
"J. c #F19D49",
"K. c #E38F59",
"L. c #E39553",
"P. c #E99553",
"I. c #E59B54",
"U. c #EA9C53",
"Y. c #E3955A",
"T. c #EC9559",
"R. c #E49C5C",
"E. c #EA9D5B",
"W. c #F29E56",
"Q. c #DBA256",
"!. c #ECA344",
"~. c #E6A649",
"^. c #ECA44C",
"/. c #EDAC4C",
"(. c #F3A646",
"). c #F2A34C",
"_. c #F3AB4C",
"`. c #EBB64A",
"'. c #F5B44D",
"]. c #E7A254",
"[. c #ECA354",
"{. c #E2AA56",
"}. c #EDAB54",
"|. c #E5A25C",
" X c #ECA35C",
".X c #EDAA5B",
"XX c #F2A453",
"oX c #F3AB54",
"OX c #F9AB56",
"+X c #F2A55B",
"@X c #F3AB5C",
"#X c #EDB453",
"$X c #EDB959",
"%X c #F4B254",
"&X c #F4BA56",
"*X c #F3B35A",
"=X c #F9B658",
"-X c #F3BC5B",
";X c #C98965",
":X c #D59364",
">X c #D09368",
",X c #DA9A68",
"<X c #C59B78",
"1X c #E49C64",
"2X c #EC9E62",
"3X c #E69C69",
"4X c #DDA467",
"5X c #D9AC79",
"6X c #E5A463",
"7X c #EBA463",
"8X c #E6AB64",
"9X c #ECAA63",
"0X c #E3A36C",
"qX c #EBA46B",
"wX c #E5A96B",
"eX c #ECAB6B",
"rX c #F1A664",
"tX c #F2AC64",
"yX c #F2AC6B",
"uX c #F9AC68",
"iX c #ECB26B",
"pX c #EAB668",
"aX c #F3B262",
"sX c #F9B666",
"dX c #F4BD62",
"fX c #ECAA75",
"gX c #F0AF74",
"hX c #EAB676",
"jX c #F3B673",
"kX c #EDC35C",
"lX c #F4C25C",
"zX c #F4C364",
"xX c #F5C867",
"cX c #F4CC6B",
"vX c #F3CB76",
"bX c #694A86",
"nX c #6D5488",
"mX c #76568A",
"MX c #785993",
"NX c #7A678B",
"BX c #886C92",
"VX c #9275A6",
"CX c #BCA292",
"ZX c #9F89B8",
"AX c #D3AE8A",
"SX c #CCAB9B",
"DX c #EAB784",
"FX c #EDB48B",
"GX c #E7BFAA",
"HX c #F0CC8D",
"JX c #E5C4AA",
/* pixels */
"D ) V S J S V K H V ` F ` , ( / H F _ W ! , F H H , _ G / W , H F k S K ;.] H ] ! ;.] <.@.] ] N ( <.;.] _ W W W , H W W W -.W W ",
"C S V V ) -./ S -.- H D -.F -.-./ W ! W _ _ F W W F S _ ( , / S W <.( ] ;.L w AXHXcXcXlXxXcXlXcXvXHXJX= <.<._ _ G ;.W ` W A W A ",
"C - S G J / K G J / G D S A _ F S ( ] H / -.H - H G H H W / ] ] E ! = N HXzXlXkX$X`.kX$XlXlX&X`.lXcXkXcXcXHX&.<.;.] ;._ W Q G Q ",
"K D A G D D ) C *.H ` / _ G ) ] H W W _ ) 1.` / ( G / H _ / :.! ! j.cXzX$XzX&X`.-XlX&X$XlX`.`.&X`.kXcXcXcXcXcXHXk.1.1.1.-.-.Q -.",
"C C K Q *.K D *.V / - ;.:._ A ` H H , K D ` H / F S ` _ ;.<.! AXvXdX$Xg.`.%X=X%X'.=X&X&X#XlXzX~.lXxXxXdXvXxXxXcXcXvXk.3.-.1.1.Q ",
"J K C *.K K C C J K G G ( H ) _ K / F E / ) ( H F / =.J >.N pX$XaX%X#X~.%X&X/.%X%X_.'.~.*X*XaX=X=XlX#XzX-X-XlXlXcXkXcXHX3.1.1.5.",
"C D C D K K C ) K G *.J E ` D / ) E =.( E / ` / F ( >.^ 5X`.dX/.*X!.g.*X^.'._._._./.=X*X{.@X}./.*X}.&X&X$XlX&X&XcXcXcXcXcXy.3.1.",
") D C C J K Q K E ) -.E H V F D D S _ H / / S =.] ] L 5XpX/./.}.oXJ.!._.!.OX!.!.^./.@XtX#XaX~._.}.'.%X=X%X&X-XzXkXkXkXcXcXcXJX5.",
"C K Q *.) J K *.C V K K 7.MXBXVXMXZXBXZ >.K , ] =.w hX'./.*XOXsXoX^.[.oX_._.).!.!.XX@XaX.X.X%X}./.g.OX/.=X}.'.`.kXkX-XdXxXkXvXDX",
"C C Q Q K K D K 6.VXbXVXMXMXVXVXE ; Z L =.VXBX' m pXjX*X~.}.OX~.OX~.~.oX^.oX(._.XX@X[.@X].@X}.sX!.(.(.!.^._./.&X$XzX-XlXdXdXzXxX",
"K *.K Q D nXMXMXMXbXbXbXbXnX7.mX7.>.6.7.BX>.p u zX$X/.`.}.}..X.X%XaXXXoX).OXOXXX].^.@X.X.X*X}.oX_.(./.^.f.OX/.%X#XaX%X$XdXpX$X$X",
"C C K 5.mXmXbXbXbXbXbXMX7.bXbX4.,.>.7.7.mXBXp.DX*X!.f.!.}.~.OX.X~.[.[.oXOXsX).uX+XtXtXL.sX}.@XoX_._.'.oXXXoX).~.%X#X=X%X=X$XdX*X",
"K Q K K D K D - =.( E - L 4.NX4.,.>.,.7.,.6.5X@X'.}._.OX^.oXXX@X~. X@X@XoXsX X X[. XrXyXaX.X@X].^._.)._.).).).OX!._.'.OX%X%X=X[.",
"K K =.E p E ' ' ^ O.' p ^ ; X @ o : Z BX,.[ |._.oX(.@XXX).@X@XoX@XU.^.E. XI.XX7X X XrX X X[.XX]..X).oXH.).@X).^./._.'.g.%XOX}.}.",
"#.,.O.+...+.R +.>.+.+...+.O.+.U ..R ..X...uX*X!.oXOXH.).+XuXF.XXXXU.J.U.@XrXW.M.uX2XM.]. X+XD.[.tX}. XH.OX^.=X^._.(.f.g.'.OXXXoX",
"+.O.+.....T O.O...n O.O.U R ..P ..R ..o.9.9XOX).@XoXG.).XX+XXXJ.U.rXU.T. XE.L.E.R.uX6X9XrXL.I.E.XXG.I.U.H.[.[.oXH.).S.!.!.).!.}.",
"+...R O.O.Y ' O.' O.P P R O.R R b m B ..#X/.}.OX+X^.+XG.XXrXXXoXU.E.U.M.E.K.uXY.2X2X2X2XR.M.1X7X|.I.U.L.F.I.H.+X^.).OXJ.(.(.!.^.",
"O.>.O.R p U c i ~ 8 g 8 U X.i X.g c O.&.OXOXOXoX+XXXXXP.XXuX+XP.H.U.2X1X2X2XY.Y.n.fXfXqXqX1XL.3XY.fX1X2XE.E.G.XXuXXXJ.f.J.XXS.!.",
"..p Y Y T b U ~ } Y ,.>.r ~ e e r o.#.hX*X@XXXI.tX+XE.Y.2XT.L.rXT.].R.L.qXqXqX3X6XqX:XDXfX,X3X3X3XY.1XqX].6XrXP.+XG.S.J.J.(.OXoX",
"O.O.+.>.~ g t c v w } M U c c e v t | sX@XaX@XXXE.rXyXn.b.T.R.b.N.b.3XqX3X3X:Xb.v.s.i.j.s.>X;Xv.:XgX6X3XqX7XR.E.R.+XU.).(.(.S.J.",
"y y g U U ~ U B M x x M v m 9 9 x c 9.sXXX*XsXN.B.qXY.rXR.Y.2XM.N.N.yXv.s.;X;X;Xu.,X>XAXi.;Xj.h.h.m.gX0X6XfX6X].E.+XW.S.J.f.g.J.",
"^ j h j j b ~ f c c g v e m 4 c + 2 hX XrXtX|.r.n.0X,X0X0X6X9X9X1X,X:Xv.>X>X3XqX:X,XfXDX0Xi.v.v.>X0X6XeXgXgX|. XF.W.J.A.S.!.S.f.",
"8 g l I y l I m m c B 9 e c e e 8 e gX XR.@X9XM.N.M.l.1Xm.1XyX6XtX|.v.v.,X,X:X:XfX4XjXhXiXjXwX:X4X8X6X8XeXwX7XI.W.XXF.J.S.XXXXJ.",
"j * m h b P m g g 6 e 9 a m 8 2 z 4 HXXX+X+X[.@Xn.7XrXqX:X0X3X{.eX|.M.n.:Xi.,Xv.w.3XfX0XQ.8X4XiXpXiX8X9X6X6XR.L.U.U.J.J.S.S.J.H.",
"j 8 ^ * % O.z m e 9 g z n g z c @.2 FX).).^.XX^.r.,XyXN.,X6XN. X7XR. XG.R.3Xu.FXw.b.0X0X,XeX4X9X9X.X.X8X X6X8XR.M.|.U.H.J.).f.F.",
"B f 9 j z m c e 6 9 B m c c 2 t m 9 4X)._.).^.].].d.l.B.x.I.|.N.7X6X+X+X XeXuXrXs.eXfXv.4XeXiX9X.X.X.X.X8X9X6XR. X7X7XG.H.S.).U.",
"g g m U z i m c g e 9 c r 5 9 c c 5 |.W.oXoXoXrXoX@XL.L.L.l.|.R.rXR.+XE. X XtXtXyX7X9X6X X9X|..X{.*XtX9XyX|.R.R.N.R.E.XXD.U.D.A.",
"f P b g b j b b 2 M 4 c r c c x 2 <Xm.+XS.^.[.[.@XtX.XU.U.E.Y.Y.rX XU.XX+X XrXU.]. X XyX.X.X.X X[.6XtX.X9X6X7X6X1XR.E.U.F.U.G.c.",
"g j j b b M j z M v c r v r c r r B AXGX:X*XaX].XX.XtX[.]. X7X7X9X XI.W. XyXyXtXyX@X9X9X9X{..X.X.X9XyX9XtX9X7X7X7X7XD.|.U.F.T.P.",
"g ~ M j ~ b b M c X.c v t v 5 v r 4 7 <XAXv fX.X[.@X[.@X@X+X X7XyX XI.[.rX X XtXrX[.aX9XyX@X XtXaX9XeX[.|.6X7XqX1XN.U.M.I.L.T.XX",
"g U m m b i d b x v r x x M 9 x t p.GXCXwXHXv 8X@X*XtX].].[.U.uXrX@X[.rX|.I.U.@X+XtX.XyX@XaXaX@X9X X X9XrX7X0X1X7X7Xx.R.+XP.I.P.",
"i m m j X.b i b a x { s x z x 9 3 5 | | t.DX}  .hX}.oX X[. X[. XR.U.U.R.E.].[.E.I.].9X.X9X XrX@X9X].].9X7XrXeXyX7XqXrX6XL.G.D.A.",
"m n g n z u g d z v x x q s q a x 3 AX2.g * ^ X h 4X}..X.X].7X7X X.XH. XY.7X XE.E.uXrX X X.XP.@XiX X9X7XyX7XjX|.qXqX|.R. XA.A.D.",
"g ~ g 6 z b b 6 s q x i r 9 x x z 3 2.h.p.w # O p.u.j.>XAXAXFXM.yXtX@X+X X|.@Xl.rX+X9X6X|.6XrX7X9X X[.yX9X9X|.rX|.6X9Xx. XP.].G.",
"% i j b i i b b a x x s q 3 9 z 9 + | y.@ f O g $.JX%.z x b n FX XrXrX Xr.Y.x.Y.+X@XI.|.R.L.M.6XqXyX8X9XpX8X9X|.7X Xc.I.G.E.G.!.",
"i b 6 g b b b 7 9 a x a x z 3 z 9 6 w # * = 4 8 v B <XDXc n g 9.n.qXT.w.l.x.[.+XXXz.+XR.1X3XN.8X6X8XiXiXHXpX|.Q.N. XI.G.U.G.c.~.",
"g b M u j n 7 ..s s a n x x a 9 3 6 5 > = % # w z 2 w hX5X* 4 FXn.e.w.i.a.uXT.+X XXXE. X X1XyX X X{.9XjX0 5 9.wXI.@X[.[.].H.^.vX",
"b 6 i 6 9 s s i a 9 s x M q 9 9 z i z $ O + O O @ w 3 } ,XDX<XiXfXe.s.a.b.2X XrXT.2Xb.qX|.6X7X1X1X7X7X8XDXg y u.d.D.G.^.^.G.D.%.",
"u p U i b b n d 3 i 9 b a 7 i x e 4 e * $ O O % % 8 6 z &.u.&.8.a.hX0.a.0.a.w.s.i.r.2X1XY.N.3XN.R.7X6XyXhXe M v 0XA.T.[.!.oXvX= ",
"j b X.g p s s a U n M n n q s 3 q g # 8 * + + O # * O 4 4 8 m q y.r 9.u.8.8. .v.rXz.Y.P.2X1XY.R.7X2X7X7XvX$.B z hXf.[./.~.HX% 1 ",
"~ U n b g U n 7 a 6 s s n s 3 8 q 2 O * O . * * & # g * + 8 9 9 &.JXDXfXn.Y.K.Z.n.a.T.P.2XY.Y.Y.2X2XR.6XdXo.g r 5XD.g.f.Q.w c = ",
"d n 7 b b b U 6 i p x i i i 3 9 9 8 + + O O # O * % * 4 % * * y &.p ..| l.r.a.8.w.K.T.T.Z.n.Y.E.n.E.E.|.yX&.e c &.c.d.!.j.# = k ",
"d i U n n d 6 b s s 9 b 7 a x 0 z # + * O O # % * @ * @ & + 4 > # g 3 FX .u.9.w.K.T.Z.F.T.T.M.L.P.Z.R.U.9XDX# ~ o.{.f.HX2 f w < ",
"j s U P b s 7 7 s 7 i a s a 9 3 2 + 4 * . @ O & O . . . * O * $ + O u [ DXa.T.E.E.Z.Z.Z.Z.z.Z.C.x.Z.L.G..XvXo.} } vXjX[ # @ @ o ",
"i d i i 6 n 7 i i i b s q s q q 2 % + O O O O % & . & % @ * @ * O % f : 4 9.a.U.G.Z.P.P.Z.L.F.C.F.Z.L.P.{.jXc 4 m &.t & = % * < ",
"U d a n i a 7 s u i a a s 5 q t e # w % $ & % # # % + O % % % % + @ * @ & 6 3X+XP.F.P.D.L.E.F.P.x.Z.x.I.6XeXw 4 < = ! < < < < < ",
"d a s a u z i a i 7 a 7 5 x 5 q z + + O * $ % * % O + . * g % % % + w % 4 ; 9.L.F.z.Z.x.L.P.P.C.C.C.L.T.R.eXo.y k I +.= ^ O = @ ",
"P s n b z u d i y i a a 7 a q q r O % w % % @ % $ y * @ % O % & O + + O # + >XY.x.x.d.Y.P.P.P.V.V.S.E.I.R.7XDXl f l l f k f @ & ",
"a d d s 7 d u 7 s s b p s 7 7 a q O 6 % + % % X + 8 * O O % + @ + O 2 O + 0 1X1XM.L.Z.Z.P.V.V.V.C.F.G.U. X|.4X&.c k k I L I & * ",
"6 d d b 7 u 7 a b i c a s n 7 a s 9 O 4 y * + . O & % O O O O O % # O i q DXa.z.x.z.F.J.d.V.d.C.z.H.D.E.|.|.$X5Xc k < k > k < 1 ",
"u s P n d s n s b b 9 a s s a a s z y % + O * O @ f O @ > O # . O + y o.hXb.r.C.x.C.C.U.P.D.d.P.L.P.R.E.6X8X8X{.B l k k k $ k o ",
"p b p d d d i d n a a d s 7 7 7 s s 8 * % @ * y O @ @ O + f * & O & &.0.s.a.z.[.U.F.F.C.H.F.G.I.P.E.I.[.eXeXQ.8Xq.! k < * & $ 1 ",
"% U u n n d n d b s ..i a a s i z 7 9 O < 8 * 8 @ . % & % k O O 5 AX8.s.a.a.W.F.A.D.d.A.[.G.D.[.].^.^.+X.X8X.X4X0 @ y & & > : o ",
"d d p u P n n n i a a s ..s n i 7 x 6 4 * * . O . * * O @ @ . v JX% s 0 t.,X XU.[.H.H.W.H.^.I.f.^.[.oXyX8Xt.o.g y g o h & . . 1 ",
"T d P d ..P s i b b b U s b a 9 i x 7 + & & + & O O . % $ + o.CX6 y 2 2 q { [ | q.0XjX9X].9X7XfX0X8.| t X.b i * : 2.: h o o k 1 ",
"n n ..p d d u i b n d s s s b s q a 3 9 + O * % & . * % O # SXm u ; u 8 i 9 7 q x 5 x ....M 5 } U n 9 6 4 % y :   p.> * 1 o :   ",
"u T ..d d i d u b M 7 U d b b z n n z i 2 % O % # O . & > JX6 + y y * 6 8 u 8 9 8 4 y g 8 i z % * % * y y h $ . X j.+.1 X X X o ",
"P d d p p d d d n 7 a U s d a 7 z a n g i % $ O & . O . SX+ i 8 * 8 y * 6 * * $ * @ > > * 8 % $ % * & * ; 1 : - X 3.P ; & X $ o ",
"p P u d P p a { n 8 n a a 7 s 7 a i 6 a i i 8 @ & $ @ @ JXg % g y y l w % * y % O % 8 > > $ O * ; $ $ > X : X X o 2.i : o   X o ",
"d U d u u p u P i d s s a x n s b i i z z 7 u 9 & = & # y.k @ * & * % 8 y j y * * L * % > * 8 O $ $ ; X ; o o o $ X.U < : :   o ",
"s U u p p Y d p b b n i 7 g 6 9 z b i 9 8 z i 8 8 # @ 2.+ @ % % 8 y u z f + $ % . $ & . O . @ X . X . $ X : X   3.B X.& o       ",
"P u p P p p d u i b p i 3 u a 9 i 9 7 9 7 n 4 z 9 g o CX. @ O * f + z g O ; > h k $ h X . > . . . . $ X ; o $ o CXX.L . 1 1 1   ",
"p u p Y Y p P j u P y 6 g y u i i j P b U b j b i i y 6 % * % ; y u p I $ & < h o X & X . . .   X . X X o X @ . CXX.! & o o   o ",
"L p Z p h p p > j j 6 j y i i i g n 9 g i j i b l Y j y f i i 9 b y #.I O & < ! & & & & * @ . X X X o $ X X @ . y.c <   &       "
};
