/* XPM */
static char *b4b3706c6e854969a3b282cd25d881b9ZSSN98iwvu1qzsXd[] = {
/* columns rows colors chars-per-pixel */
"64 64 256 2 ",
"   c #1C0F00",
".  c #0E180F",
"X  c #1C1505",
"o  c #17180A",
"O  c #1C1B0C",
"+  c #0E1A15",
"@  c #131B13",
"#  c #171A15",
"$  c #1A1C14",
"%  c #141E1A",
"&  c #221B05",
"*  c #2A1C03",
"=  c #271509",
"-  c #231B0C",
";  c #2B1C0B",
":  c #361A08",
">  c #321D0D",
",  c #231D12",
"<  c #2C1C14",
"1  c #351E13",
"2  c #192112",
"3  c #1C2114",
"4  c #16221B",
"5  c #192318",
"6  c #292509",
"7  c #2D220C",
"8  c #332305",
"9  c #3B2607",
"0  c #33240B",
"q  c #3C2B0E",
"w  c #38310D",
"e  c #232213",
"r  c #2C2312",
"t  c #262917",
"y  c #352714",
"u  c #3A2C13",
"i  c #2D341B",
"p  c #393518",
"a  c #171F21",
"s  c #182623",
"d  c #1C353C",
"f  c #272A24",
"g  c #293626",
"h  c #363924",
"j  c #4B1B03",
"k  c #452809",
"l  c #572807",
"z  c #4B340B",
"x  c #57370A",
"c  c #452B15",
"v  c #512C12",
"b  c #433414",
"n  c #473816",
"m  c #443B1B",
"M  c #4B3C1A",
"N  c #573A16",
"B  c #6B340A",
"V  c #463C25",
"C  c #583C24",
"Z  c #653D22",
"A  c #39431C",
"S  c #3A452A",
"D  c #3B4934",
"F  c #39503D",
"G  c #49451B",
"H  c #4C421C",
"J  c #594F16",
"K  c #53451B",
"L  c #594618",
"P  c #554B1D",
"I  c #6F460A",
"U  c #664716",
"Y  c #754C16",
"T  c #67541B",
"R  c #7A5619",
"E  c #79611C",
"W  c #4C4422",
"Q  c #464828",
"!  c #554B22",
"~  c #564827",
"^  c #5B4D24",
"/  c #5C5224",
"(  c #58572A",
")  c #5B542C",
"_  c #494C35",
"`  c #504E31",
"'  c #495538",
"]  c #585837",
"[  c #664728",
"{  c #63552B",
"}  c #675828",
"|  c #795923",
" . c #78512A",
".. c #665A35",
"X. c #5A6238",
"o. c #67622D",
"O. c #77672A",
"+. c #696538",
"@. c #746737",
"#. c #6F713D",
"$. c #7C743B",
"%. c #334843",
"&. c #4B5847",
"*. c #555A43",
"=. c #5A6747",
"-. c #586C54",
";. c #676A46",
":. c #62654C",
">. c #766B44",
",. c #6B754A",
"<. c #797748",
"1. c #686950",
"2. c #6A7757",
"3. c #757955",
"4. c #823A08",
"5. c #945D0B",
"6. c #844711",
"7. c #875819",
"8. c #98620C",
"9. c #87651C",
"0. c #9D6915",
"q. c #986518",
"w. c #9C6B1B",
"e. c #9F721C",
"r. c #A0670E",
"t. c #A26A16",
"y. c #A36C1B",
"u. c #A2731D",
"i. c #AA781A",
"p. c #895B2A",
"a. c #836323",
"s. c #8A6926",
"d. c #856C2B",
"f. c #976B23",
"g. c #89722C",
"h. c #9B7324",
"j. c #98782A",
"k. c #856B35",
"l. c #887739",
"z. c #967A35",
"x. c #A56B23",
"c. c #A37423",
"v. c #A57B25",
"b. c #A87926",
"n. c #A27D2B",
"m. c #B0762A",
"M. c #A77B36",
"N. c #867A46",
"B. c #8C794F",
"V. c #7C814B",
"C. c #79845C",
"Z. c #798965",
"A. c #7D8E7B",
"S. c #A9811B",
"D. c #9F812B",
"F. c #99823B",
"G. c #AC8627",
"H. c #A4822C",
"J. c #AB832C",
"K. c #B38929",
"L. c #A38332",
"P. c #AB8533",
"I. c #AC8A34",
"U. c #A4883B",
"Y. c #AC8B3A",
"T. c #B48C35",
"R. c #B29135",
"E. c #B7953A",
"W. c #C58F32",
"Q. c #8B854A",
"!. c #8D844C",
"~. c #93854C",
"^. c #978848",
"/. c #878557",
"(. c #8B8A54",
"). c #8B8C5B",
"_. c #928C53",
"`. c #998B56",
"'. c #928D5B",
"]. c #8A925E",
"[. c #9C925B",
"{. c #999458",
"}. c #A78B46",
"|. c #B28D4F",
" X c #AA9447",
".X c #B79746",
"XX c #A48C55",
"oX c #A69658",
"OX c #A59B5D",
"+X c #B69A57",
"@X c #BEA44C",
"#X c #AAA25B",
"$X c #B7A65A",
"%X c #858C65",
"&X c #968863",
"*X c #889265",
"=X c #989766",
"-X c #889975",
";X c #999B76",
":X c #A79A66",
">X c #B59B65",
",X c #B0986E",
"<X c #9FA16E",
"1X c #9BA576",
"2X c #ACA365",
"3X c #A9A76B",
"4X c #ACA46B",
"5X c #B7A768",
"6X c #B5AB6C",
"7X c #B8B169",
"8X c #BDB36D",
"9X c #A8A777",
"0X c #B4AB76",
"qX c #BBAE72",
"wX c #ACB17B",
"eX c #BBB373",
"rX c #B4B37B",
"tX c #B8B678",
"yX c #BBB47B",
"uX c #C18942",
"iX c #C7A751",
"pX c #C4A959",
"aX c #C3AD66",
"sX c #C3B36C",
"dX c #C9B669",
"fX c #C3B474",
"gX c #C4B974",
"hX c #CFBA72",
"jX c #CCBB74",
"kX c #C5B579",
"lX c #C4BB7C",
"zX c #CBBB7B",
"xX c #C9C27A",
"cX c #D6C476",
"vX c #9CA984",
"bX c #ABB088",
"nX c #B9B884",
"mX c #C3BD82",
"MX c #C9BE87",
"NX c #CBBE9F",
"BX c #BCC187",
"VX c #C5C284",
"CX c #CBC687",
"ZX c #C5C38A",
"AX c #CBC58C",
"SX c #D3C988",
"DX c #D7D189",
"FX c #CAC796",
"GX c #D3CC97",
"HX c #CED19D",
"JX c #D5D299",
"KX c #CDCFAA",
"LX c #D5D3A4",
"PX c #D7D5AA",
"IX c #D6D9B5",
"UX c #E0DCB1",
/* pixels */
"%XZ.Z.%X'.=X].'.*X*X).*X).).'.(.).)./././.C.(.(.Q.(.(._.(.(.!./.Q.!.N.(.!.N.N.<.N.N.N.N.l.l.l.l.k.k.l.g.k.k.d.g.d.d.k.d.a.a.a.U ",
"%X%XZ.].'.*X{.*X=X[.).[.'.'.{._._.).(.!.Q.(.(.).!.!.!.~.!.!.!.~.Q.!.!._.N.!.l.N.N.z.k.$.l.N.l.l.l.l.z.k.d.g.g.d.d.d.d.a.a.a.a. .",
"*X%X*X).*X[.=X{.=X3X=X=X#X=X[.{.[._._._.)._._.!.~.~.~.Q.~._.(.~.!.~.~._.Q.^.^.^.~.B.}.B.F.^.z.z.z.z.z.g.j.g.g.d.k.g.d.s.s.a.a.| ",
"%X*X].%X=X{.=X=X:X=X=X;XV.+.@.o.`.=X[.{.{.^.`.~.~.~.^.`._.~.^.^.~.`.^.`.XXXXB.[  .p.x.m.z.z.U.z.z.j.j.j.z.j.g.j.s.f.d.s.p.s.f.R ",
"-X*X=X=X<X<X3X3X[...1.m W { :XZXAXZXnXB.5XOXOX{.{.`.^.{.XXXX^.{.XX[.[.oXB.Z [ Z [ p.x.x.uXM.M.z.z.g.j.L.H.j.D.j.j.f.f.f.w.s.w.R ",
"=X<X-X<X=XwX7X{...[ @.) /.AXFXFXFXZXlXqX[.2X2X:XoXoX{.{.XXXX`.OX:X5X,X>.U [ Z Z Z N v Z U z ; b } O.d.g.s.U.H.D.j.h.h.h.f.f.9.9.",
"1X1X9X0XwXrXtX@.[ [ ' 9XPXHXFXAXVXlXmXlXqX6X6X6X#XOX2X:X#X:X2X6X6X6X~ v C v C v v : - X X $ y n  .@.} N.9.s.R.L.L.h.h.c.h.f.w.7.",
";X9X9XtXtXtX_.N.p.X.vXKXLXLXHXFXmXlXzXfXeXXXfXeX6X3X2X2X2X5X5X6X0X`.~ y 0 ; y - X X $ @ o 6 /.m 7 u N | F.g.H.D.J.n.j.f.f.f.f.q.",
"wXbXrXnXnXZX+. .^ *.KXIXLXLXHXFXCXSXkXsXlX6XeXmXfXyXeX6X6XqXeXyXnXC r % , # . o . . # $ o O O r M / } | g.F.R g.9.P.n.n.h.h.h.q.",
"9XrXnXtXBXnX#.k.,.KXIXIXHXLXJXFXfXMXkXjXzX5X:XAXMXmXlXfXmXmXVXmX&Xr O $ . . o . . # $ $ $ 2 O p n } k k.O.oXF.$Xl.j.H.n.n.c.f.f.",
"nXtXBXVXZXX. .H Z.IXIXKXHXJXJXSXkXMX5XzXsXfXoXZXAXVXAXmXMXmX3XV - . @ $ o # o # o $ , $ e $ , - r ; b z s.g.x d.^.R Y.j.n.f.f.q.",
"bXmXZXAXnX! p.;.bXIXIXKXHXJXZXAXMXmXfXzXsX8XoXmXZXyXnXZX0XB.t o $ # $ $ $ # @ @ @ @ e $ $ e , , r n P d.fXeXO.I ^.Y Y.I.j.x.f.q.",
"nXVXZXCX/.~ p._ FXIXPXLXJXSXFXGXMXjXjXhXdX7X+XwX=X*.) ~ V , @ $ # # $ # $ # @ $ # O O , , - * * q b N b y z k | } R j.P.n.e.w.w.",
"nXZXxX3XN >.k.3.KXIXLXLXJXFXFXFXSXkXhXfXaX$XB.) e e $ $ $ # # $ $ . $ # o X V w 0 W ~ M b { L 9 W @.c u ; n } | } | 9.H.L.v.c.w.",
"nXxXZXlX..@.[ ;XKXIXUXLXLXFXFXGXzXjXjXdXaX#X~ 3 3 $ # $ O # + + # # # $ . O A / } L H W ~ 7 K [.:X$.N.[ q ^ I O.l.s.R J.P.v.e.c.",
"bXnXZXtX~ N.n 9XLXIXPXIXLXFXZXMXMXCXzXjX8X+X0 $ # @ $ + + @ + 4 + $ @ $ o O p P T T P 6 t < m * tXkXN.n b z Y R g.9.R I.H.v.u.t.",
"1XBXCXQ.{.N u ;XLXLXUXPXLXGXMXNXkXMXhXfXaX`.O % @ % + + + 2 5 4 # # t o o e u K T U } M r ` FX- N.qXfXM 0 k T T R E 9.I.P.v.v.u.",
"1XrXJXnXQ ^ C bXJXLXPXPXLXNX,X,XB.k.kXkXaXW . % 4 + 5 4 . + 4 + 4 . . o o i M L L L  .XX:Xb $ 0 B.kX>XL * z x K I Y h.I.P.m.i.u.",
"-XrXCXZXQ c C 3XJXLXGXPXFXMX@.>X>XB.MXsX4X, % % % % + @ + + + 4 . X u y H P K N N z U oXsX:XL } 0X`.0X> b u 9 x U R J.U.I.J.v.w.",
"Z.bXtXCX3.V C :XJXPXLXLXKX:X[ ,XB.M.+XaX@.4 % a a s + + . g + @ 3 w T q ! J K N N v N XX>XL L T q ..= 7 w ; y I R f.I.Y.I.J.i.u.",
"C.;XrXmX=XQ c ..NXLXLXPXKX..,XM.B.>XXX$Xt + 2 + 4 4 s s + 2 @ @ X K k b G H L n V b n C H [ N k.:X& r 6 - r 8 O.a.U. XY.Y.J.v.i.",
"C.*XwXVX/...V V 0XPXJXPXbX:.,XB.|.+XXX>.@ 4 % + + + 5 2 5 . 2 O G J z q y K K N c p c ~ [ q 8 | ,X& 6 - ; & k J T k.F.L.P.J.i.i.",
"-.*XwXnX) 1.t c <.FXNXKXA.&.>Xz.+X+XoXq + a 4 a + . . . @ 2 2 m P K T p t c N N b k b 9 1 v +X>X; O 6 6 0 6 0 k M z L f.J.J.G.i.",
"C.].3XtXW W t V C B.NXA.-.C ,Xk.>X+XOXO + s s + @ 5 . 2 e 2 p G P n n u i t m ~ z k q q Z  .XX* X , 6 6 b u 7 9 M x I b.T.G.G.i.",
"C.].3XtX) ) ) h V C B.1.&.*.qXz.pX.X`.X a 4 s s % 3 3 i t 6 P / G b p h r 3 e w C z K 5X`.&XX o O X O X & 0 0 7 0 9 a.n.P.T.G.i.",
"C.Z.wXwX! ..h m p h V &.*.>.>X+XpX+X@.O % 2 + + + =.e 2 i W K P p 7 u p y p W !.&Xu c M 0 O o O O X - ; ; q * * 8 9 U n.P.J.i.i.",
"C.=X3X6X` @.V h f h f d _ >.aXaXaXaX6 + 4 + 4 S X.p 2 t p ! ! i t i w p c ^ [.:Xp $ - X # O O , - ; - y 8 k 9 0 ; 8 U G.J.J.v.i.",
"V.=X#X2XW @.) h c h h h _ _.sXjXdX{.i h X.=.=.=.( t g t p P H w p M M M M { =X<.9X, n 8 o o O - y 0 * y x I I z k x E L.I.J.i.i.",
"].{.2XB.( l.l.} ..V V ` ] XXdXdXfXA ,.Z.;.,.;.W p i h f Q K K ! { P K W b V <.tXmX8 - 9Xr O < X O u & & 9 x 7.Y I a.L.I.T.J.i.i.",
"Q.#XoX( ) { N.^.k.B.p f *.[.sXjXo.P ,.( 3.A p G W G S t g p ` ) ) Q _ V m H O.5XyXtXW eX>.- O $ o O & 7 9 x U s.j.U..XY.G.v.i.i.",
"{.oX#.) ) ) ) } N.p h 3.] B.4XxX5X=XW <.+.^ K ^ H W ! Q g g 5 g h h p G H K / ~.3XVXMXjX`.& o O - & & 0 9 8 k q.L.E.I.Y.J.G.u.i.",
"#XQ.J } { ..} O.>.h ;XGXC ` [.jXzXn @.M { { { { ^ ^ P P ! G A W H G G w w / wXFXmXZXlXlXqX8 - X - r k M K z x R j.j.j.h.H.8.i.i.",
"XX~ { } } } o.^.~.wXGXJX'.W N.kXSXB.>XT / { ) / / / ! / / P J / K K G b =XSXZXrXVXVXCXVXyXN.X , O < ; 0 8 8 k l x N x N Y 7.q.y.",
"..{ ..{ [ } O.7XGXDXGXDXDXn ` XX+X} xX$XT ) ) / ^ ^ ^ ) J P P P / _.6XwXZXSXqX3XlXxXCXVXMX5X0 X - - O & ; & ; 0 u k N N U 7.7.w.",
"( ..+.{ } } Q.CXDXcXDXDXSX0XM @.) 5XjXxXoXw G ( ) ( ( / P ! ! P Q.#X$X7XOX6XyXyXrXVXAXZXAXlXN.- , X -   & X > q 0 = z Z U R 5.8.",
"{ +.@.{ / T #XDXJXDXSX).2.>._ Q ..OXjXxXcX#XP ( ) ! ( G K / +.^. X#X#X#XOX:X=XxXfXzXAXVXmXlXB.- X - , - 7 > = * > k N s.a.9.9.8.",
"..>.>.>.J O.8XDX6XrX9XZ.-./.W n K V.$XjXhXhX$XP /.@.p h G /.{. X$.^.#XoX2Xq $XdX5X7XqXyX6X6X3., O X & - ; ; & ; > N | M.h.f.q.t.",
"{ ..>.@.( F.JXxXDXcX_.Q.1.=X=X_.p ! l.aXcXhXcXpX@.;.bX..{.^.^.O.F.{.F.} $.T $Xl.~.2X8XsX5XqX0 O O & & & > 0 > ; ; k U n.L.v.v.t.",
"........E F.HXDXDXmXnX;.] ;X:XOX+.p P Q.pXcXhXhXdX>.IXsX0XJ ( #.V.#.N.2X$X7XtXeXgX8XzXgX8X:X7 X - - 0 c 8 8 0 u q k Y h.J.i.c.u.",
"....@.N.g.^.SXxXxXSXZXV.] %X*X(.[.b G P ~. XdXdX8X( FXCX3X#X#XOXo.Q.:X6X6XlX8X8XlX8XqXeX8Xb - e - & ; 0 9 0 k k k x | h.J.G.H.u.",
") ] @.l.}.F.HXSXCXVX9X(.2.3.*X).(.<.w H ! $.{.oX).u eXMXxXCXtXtX7X6XrXtXyXeXmXxXlXgXlX8X3X7 - u > ; ; c k x | a.x U O.h.v.J.i.w.",
"{ [ { g.$Xg.JXHXnXnX*X].3.=.(.)./.V.Q.b m P } ( h y fXCX9X6X7XeXmXrXnXrX0XkXmXVXtXgXfX:X` O & ; u 0 ; 0 k z I 9.a.a.h.n.J.v.v.u.",
"..{ O.^.dXT LXFX%X1X%X,.2.-.1.*.).3.;.@.p G H H u _ VXAXrX@.:XeXVXrXMXfXmXlXVXCXtXfXoX[.6 - - - - y ; 0 k N T U s.M.j.J.P.G.u.0.",
"{ ..k.$XxXS wXnX=X9X%XZ.2.;.i <.] N.,.{ n p H n V ;XGXZXnX0XrX3XVXVXMXmXVXVXVXxX5XoX5X* O - - , & - * O 8 : j N a.}.P.I.I.v.u.u.",
"O.O.^.xX#.A BX3XV.1X*X2.2.' =.<.>._ >.#./ ;.W M M B.lXCXAX=XnX0X0XeX6XgXVXxXgX8X7XOX@.& , - , - > ; 8 y 0 9 9 Z j.I.H.H.L.c.u.t.",
"O.U.dXOXS A ZX=X-.;X=._ ' V.$.F.N...3.<.+.3.t b b '.SXCXBX:XlXtX3X2XgXxXxXjXsX8X!.B.V , < $ , , = ; > ; * 8 9 Y I.K.T.I.G.v.u.0.",
"^.pXaX` h X.3X=XC.C.2.] <.#.$.$.$.+.;.>.+.*X3 g p _.CXZXrX0X7X6X2X_.gXCXtXdX#XT 6XeXp , O X , O = u 8 9 k y 9 x Y n.H.J.b.b.u.0.",
" X#X,.h g ,.1XC.vX2.] X.+.+.o.O.@.+.] ,.,.Z.t %.t [.ZXZX2XVX7X#X#X5X7XyX:X^.@.6X6X<.y < , X O = 0 8 8 > * 7 > 9 L R w.n.G.u.x.y.",
"X.] Z.%.%.).1XC.C.;.p #.X.o.o.+.o.o.o.] X.2.g d g N.mXtXbXXX[.=X3X#X=X0 +.3X7X2X>X} 8 ; ; ; & * > 8 8 q 8 k : k x R 9.f.h.u.w.t.",
"_ X.=.%.S ).Q.).3.=.' X.( ( o.( ( o.( ( =._ ' d 5 /.BXBX:X(.'.9X6X$X3X>.^.{.BXQ.oXI k * 9 8 : k N x x x z z 8 k z B s.f.h.v.u.0.",
"D Q 3.D i ).V.C.-.' ] =.X.X.( ( ( X.o.( Q +.3.s s =XnXbX<X[.;X9X6X`.] =X3XeX5X$.>XY z k * : k z v x Y R R U x x L x 9.f.c.y.u.t.",
"S Q V.1.S #.Z.2.&.' -.=.X.( ' ( X.' X.' ( ` Z.s g =XnXbX$.;XvXB.K +.B.0X=XtX7X8XaXE Y x x x l x x x I s.j.z.9.E d.R w.h.c.c.q.q.",
"X.Q >.( ] ;.2.-.D =.*.' *._ ' ' ' ' Q ' Q Q 3.h S =XvXB.bX;X3.v [ V [  .^.zXjXxXjX+X9.I Y B x x I R f.D.Y.D.H.h.n.f.h.h.c.x.q.w.",
"( ' ;.] ,.;.2.-.D ' ' ' ' S _ ` *.X.' F D Q ..Q W _.vX;X9X` < c q j B f.R.hXdXhXdX8X+Xs.E R R R 9.j.L.R.R.I.R.L.P.n.n.u.c.y.0.0.",
"( +.1.V >.-.-.-.&.' ] ' ' S ' ' ' ' D %.S g y ..K %XbX:.y 1 = > j Y 7.m.|.5XdXdXdXdXpXpX XD.F.U.T.I.R.R.R.R.I.I.I.P.j.v.u.y.0.8.",
"$.<.' V 1.&.' -.' S &.' _ _ _ D D S D g g 5 < ] &X1.:.1 = < 1 1 j j p.Y h..X+XaXdXpXdXdXdX$X.X XE.E.R.R.R.I.I.I.G.J.v.v.c.0.r.0.",
"^.N.) ` ] i =.=.X.,.>.#._ ] Q S S g D g 3 5 # < V f < < < c 1 c v B 6.M.x.iXm.T.iXiXaXpXdXpX@X.XE.R.I.P.I.J.K.J.J.v.v.b.x.q.0.5.",
"}.^.$.3.X.,.V.(.(.2X Xl.} @.` A A S d 4 4 3 $ - 1 < < = < 1 v c l B M.4.uXm.W.y..X@XpXpXpXiX@X@X.X.XY.I.T.m.T.G.J.v.v.c.w.t.q.r.",
"^.}.F.Q.^.^.^.#X X X XE.H.O.Q S g s s % # 5 , r < # < < < 1 1 C k j 4.M.6.W.W.W.x.|..XiXiX.XE.E.E..XE.T.P.K.G.b.v.c.i.u.y.y.r.5.",
"Y..XF.U.I.I.XX$XgXdX^.^.$.#.S A g g f + e $ @ $ < = < 1 1 1 j c [ k B 6.y.t.m.x.t.i.Y..XiXiXW.@XE.E.E.T.K.v.G.S.u.u.y.y.t.r.q.5.",
" XE.F.R.I.U.U.OXdX|. X{.O.J S A g g % + # # $ # # < # < 1 < 1 c j : j B 4.6.x.x.6.m.x.M..XE.iXE.E.E.R.K.K.S.i.S.i.i.y.y.t.t.5.5.",
"z.}.U.P.F.U..X}.XXL. XF.V.( S i s s s + # , # # # < = : 1 < 1 j < 1 1 j B l 6.q.4.6.x.m.m.T.E.W.T.W.R.K.K.K.S.S.i.t.x.y.q.8.5.5.",
"Y.Y.}.F.XX+X X^.z.U.F.D.o.( S A s s # @ # a a # < s # : < < < 1 : = < j j l l p.4.B B y.0.m.T.K.K.K.K.K.K.G.S.i.i.i.y.y.y.8.5.5.",
"s.U.|.+Xl.Y.R.G.}.U.g.O.o.A g s a a # + # , # # @ < # = < < = : = : j l j B j B 7.B B B f.h.K.K.W.K.K.K.K.K.K.S.i.i.y.y.r.t.5.5."
};
