/* XPM */
static char *_6332c59c772434bc224d2a759808aab1WYFDbCFS9nloOYq[] = {
/* columns rows colors chars-per-pixel */
"20 20 170 2 ",
"   c #3D0303",
".  c #231D1D",
"X  c #371616",
"o  c #202020",
"O  c #232323",
"+  c gray15",
"@  c #282828",
"#  c gray17",
"$  c #2D2D2D",
"%  c #373737",
"&  c #3B3232",
"*  c gray22",
"=  c #3C3C3C",
"-  c #420000",
";  c #490000",
":  c #580000",
">  c #570D0D",
",  c #571717",
"<  c #680000",
"1  c #690000",
"2  c #6E0000",
"3  c #730000",
"4  c #483232",
"5  c #4D3535",
"6  c #503F3F",
"7  c #5B3B3B",
"8  c #643C3C",
"9  c #753434",
"0  c #773F3F",
"q  c #410041",
"w  c #440044",
"e  c #480048",
"r  c #4A004A",
"t  c #4B004B",
"y  c #4B074B",
"u  c #4D004D",
"i  c #431143",
"p  c #4A134A",
"a  c #491C49",
"s  c #4C194C",
"d  c #4F1B4F",
"f  c #500150",
"g  c #530053",
"h  c #540054",
"j  c #530A53",
"k  c #570F57",
"l  c #580058",
"z  c #59005C",
"x  c #5F005F",
"c  c #5C0D5C",
"v  c #551155",
"b  c #511E51",
"n  c #581158",
"m  c #5B175B",
"M  c #442344",
"N  c #492349",
"B  c #522652",
"V  c #562656",
"C  c #582558",
"Z  c #5B265B",
"A  c #5E215E",
"S  c #593159",
"D  c #5E325E",
"F  c #5F3B5F",
"G  c #5E1A60",
"H  c #620066",
"J  c #620C66",
"K  c #66006A",
"L  c #6A006E",
"P  c #6D006F",
"I  c #601E63",
"U  c #6D0071",
"Y  c #6E0871",
"T  c #642766",
"R  c #6B286E",
"E  c #613D61",
"W  c #643D64",
"Q  c #6E366E",
"!  c #6F3372",
"~  c #743D74",
"^  c gray27",
"/  c #4F4343",
"(  c #484848",
")  c #4C4A4C",
"_  c gray30",
"`  c #524141",
"'  c #564141",
"]  c #5C4646",
"[  c #564A4A",
"{  c #594F59",
"}  c #624242",
"|  c #624B4B",
" . c #6F536F",
".. c #754375",
"X. c #724E72",
"o. c #795D79",
"O. c gray42",
"+. c #7B6F7B",
"@. c gray45",
"#. c #767070",
"$. c #7A777A",
"%. c #7E7E7E",
"&. c #850000",
"*. c #870000",
"=. c #960000",
"-. c #940707",
";. c #9F0000",
":. c #AA0000",
">. c #B60000",
",. c #B80000",
"<. c #C30000",
"1. c #D70000",
"2. c #E40000",
"3. c #B25401",
"4. c #B45400",
"5. c #AA5810",
"6. c #AB5E1A",
"7. c #A86C37",
"8. c #CF7E36",
"9. c #854D4D",
"0. c #925A5A",
"q. c #955C5C",
"w. c #826060",
"e. c #866A6A",
"r. c #856F6F",
"t. c #936060",
"y. c #996161",
"u. c #9B6060",
"i. c #8E7474",
"p. c #967575",
"a. c #9A7878",
"s. c #9E7E7E",
"d. c #A17E7E",
"f. c #A37E7E",
"g. c #D05656",
"h. c #B6B100",
"j. c #D1B218",
"k. c #B18660",
"l. c #876B87",
"z. c #887288",
"x. c #956896",
"c. c #967E96",
"v. c gray51",
"b. c gray52",
"n. c #8C8484",
"m. c #8E8E8E",
"M. c #938D8D",
"N. c #928C92",
"B. c #929292",
"V. c #9B939B",
"C. c gray61",
"Z. c #9F9F9F",
"A. c #A78686",
"S. c #AB8282",
"D. c #AE8080",
"F. c #B08686",
"G. c #BC8E8E",
"H. c gray63",
"J. c gray64",
"K. c gray65",
"L. c gray66",
"P. c #AAAAAA",
"I. c #ACACAC",
"U. c #AFAFAF",
"Y. c gray70",
"T. c #B4B4B4",
"R. c gray73",
"E. c gray",
"W. c gray77",
"Q. c #C8C8C8",
/* pixels */
"5 ' ] ' ( 5 ' ' | | ' ` [ | | ' 4 ] ' ` ",
"h.H.H.H.J.J.H.J.J.J.J.J.J.J.J.J.J.H.H.j.",
",.q.} 9.y.0.0.0.0.0.0.0.0.0.0.y.g.7 A.- ",
"= M.P.v.C ~ Q.E.T.@.Q 8.Y.E.! n C.W.#.@ ",
":.G.B.R O.e l c P.f f J.J x r { T N.p.: ",
":.n.U.a L l q y Y.f f Y.y q r H I b.c.: ",
"* f.x.N ) m U u W f f E e x G $.4 X.c.O ",
"2.G.z.h q w h f f S S f h l h r q e.f.- ",
">.a.f A b p u U f U U f U l s i d K G.; ",
"N i.f h f f f B f Y Y f V f r r f z c.. ",
":.k.Y.N.j f Z f f f f f f V w j N.I.i.: ",
"*.M.l.f f Z f +.f f f f $.f Z h x o.e.; ",
"X S.E.n D f m f f f f f f m f D n T.N., ",
"1.S.R.Y.7.c.L.v f f f f k L.c.7.T.E.k.; ",
"1.f.Y.Y.6.3.4.k...f f ..k.4.4.6.T.R.S.- ",
"-.c.T.T.Y.5.V.f f f f f f V.5.Y.T.T.A.  ",
"<.K.w.P.T.T.T. .H.f f J. .T.T.T.P.w.J.: ",
"*.> m.T.t.0 C.T.T.F F T.T.C.0 t.T.r.> 2 ",
"=.1 1 1 , 8 Y.s.9 n.n.9 s.Y.8 & : 3 3 ;.",
"_ * ^ ^ % # # + $ %.%.$ o # # % ( ^ * ` "
};
